G04 (created by PCBNEW (2013-june-11)-stable) date Mon 12 Oct 2015 07:45:56 PM CEST*
%MOIN*%
G04 Gerber Fmt 3.4, Leading zero omitted, Abs format*
%FSLAX34Y34*%
G01*
G70*
G90*
G04 APERTURE LIST*
%ADD10C,0.00590551*%
%ADD11C,0.00787402*%
%ADD12C,0.00393701*%
%ADD13C,0.012*%
%ADD14C,0.006*%
%ADD15C,0.008*%
G04 APERTURE END LIST*
G54D10*
G54D11*
X49438Y-55800D02*
G75*
G03X49438Y-55800I-538J0D01*
G74*
G01*
X49440Y-32950D02*
G75*
G03X49440Y-32950I-540J0D01*
G74*
G01*
G54D12*
X37400Y-57100D02*
X37400Y-31600D01*
X60400Y-57100D02*
X37400Y-57100D01*
X60400Y-31600D02*
X60400Y-57100D01*
X37400Y-31600D02*
X60400Y-31600D01*
G54D10*
X52575Y-50605D02*
X52575Y-55094D01*
X52575Y-55094D02*
X60449Y-55094D01*
X60449Y-55094D02*
X60449Y-50605D01*
X60449Y-50605D02*
X52575Y-50605D01*
G54D13*
X51400Y-34850D02*
X51400Y-35250D01*
X51400Y-35250D02*
X51800Y-35250D01*
X51800Y-35250D02*
X51800Y-38450D01*
X51800Y-38450D02*
X51000Y-38450D01*
X51000Y-38450D02*
X51000Y-35250D01*
X51000Y-35250D02*
X51400Y-35250D01*
X51600Y-35250D02*
X51800Y-35450D01*
X51400Y-38850D02*
X51400Y-38450D01*
X52600Y-34100D02*
X52600Y-34500D01*
X52600Y-34500D02*
X53000Y-34500D01*
X53000Y-34500D02*
X53000Y-37700D01*
X53000Y-37700D02*
X52200Y-37700D01*
X52200Y-37700D02*
X52200Y-34500D01*
X52200Y-34500D02*
X52600Y-34500D01*
X52800Y-34500D02*
X53000Y-34700D01*
X52600Y-38100D02*
X52600Y-37700D01*
G54D10*
X57150Y-33600D02*
X57150Y-35600D01*
X57150Y-35600D02*
X56150Y-35600D01*
X56150Y-35600D02*
X56150Y-33600D01*
X56150Y-33600D02*
X57150Y-33600D01*
X40900Y-39850D02*
G75*
G03X40900Y-39850I-500J0D01*
G74*
G01*
X40900Y-35850D02*
G75*
G03X40900Y-35850I-500J0D01*
G74*
G01*
X45400Y-40850D02*
X45400Y-34850D01*
X45400Y-34850D02*
X39400Y-34850D01*
X39400Y-34850D02*
X39400Y-40850D01*
X39400Y-40850D02*
X45400Y-40850D01*
G54D13*
X55150Y-34850D02*
X55150Y-35150D01*
X55150Y-35150D02*
X54750Y-35150D01*
X54750Y-35150D02*
X54750Y-37550D01*
X54750Y-37550D02*
X55150Y-37550D01*
X55150Y-37550D02*
X55150Y-37850D01*
X55150Y-37550D02*
X55550Y-37550D01*
X55550Y-37550D02*
X55550Y-35150D01*
X55550Y-35150D02*
X55150Y-35150D01*
X54750Y-35350D02*
X55550Y-35350D01*
X55550Y-35450D02*
X54750Y-35450D01*
X53900Y-34850D02*
X53900Y-35150D01*
X53900Y-35150D02*
X53500Y-35150D01*
X53500Y-35150D02*
X53500Y-37550D01*
X53500Y-37550D02*
X53900Y-37550D01*
X53900Y-37550D02*
X53900Y-37850D01*
X53900Y-37550D02*
X54300Y-37550D01*
X54300Y-37550D02*
X54300Y-35150D01*
X54300Y-35150D02*
X53900Y-35150D01*
X53500Y-35350D02*
X54300Y-35350D01*
X54300Y-35450D02*
X53500Y-35450D01*
X57050Y-36200D02*
X57050Y-39000D01*
X57050Y-39000D02*
X56250Y-39000D01*
X56250Y-39000D02*
X56250Y-36200D01*
X56250Y-36200D02*
X57050Y-36200D01*
X56850Y-36200D02*
X57050Y-36400D01*
G54D10*
X39400Y-42850D02*
G75*
G03X39400Y-42850I-500J0D01*
G74*
G01*
X39400Y-47850D02*
G75*
G03X39400Y-47850I-500J0D01*
G74*
G01*
X45400Y-48850D02*
X45400Y-41850D01*
X45400Y-41850D02*
X37900Y-41850D01*
X37900Y-41850D02*
X37900Y-48850D01*
X37900Y-48850D02*
X45400Y-48850D01*
X52575Y-40105D02*
X52575Y-44594D01*
X52575Y-44594D02*
X60449Y-44594D01*
X60449Y-44594D02*
X60449Y-40105D01*
X60449Y-40105D02*
X52575Y-40105D01*
X52575Y-45355D02*
X52575Y-49844D01*
X52575Y-49844D02*
X60449Y-49844D01*
X60449Y-49844D02*
X60449Y-45355D01*
X60449Y-45355D02*
X52575Y-45355D01*
X47900Y-34350D02*
X49900Y-34350D01*
X49900Y-34350D02*
X49900Y-54350D01*
X49900Y-54350D02*
X47900Y-54350D01*
X47900Y-54350D02*
X47900Y-34350D01*
G54D14*
X46800Y-35300D02*
X45800Y-35300D01*
X45800Y-34300D02*
X46800Y-34300D01*
X45800Y-35300D02*
X45800Y-34300D01*
X46800Y-34300D02*
X46800Y-35300D01*
X47000Y-37200D02*
X46000Y-37200D01*
X46000Y-36200D02*
X47000Y-36200D01*
X46000Y-37200D02*
X46000Y-36200D01*
X47000Y-36200D02*
X47000Y-37200D01*
X47900Y-36400D02*
X46900Y-36400D01*
X46900Y-35400D02*
X47900Y-35400D01*
X46900Y-36400D02*
X46900Y-35400D01*
X47900Y-35400D02*
X47900Y-36400D01*
X47900Y-39300D02*
X46900Y-39300D01*
X46900Y-38300D02*
X47900Y-38300D01*
X46900Y-39300D02*
X46900Y-38300D01*
X47900Y-38300D02*
X47900Y-39300D01*
X47900Y-43300D02*
X46900Y-43300D01*
X46900Y-42300D02*
X47900Y-42300D01*
X46900Y-43300D02*
X46900Y-42300D01*
X47900Y-42300D02*
X47900Y-43300D01*
X47900Y-47300D02*
X46900Y-47300D01*
X46900Y-46300D02*
X47900Y-46300D01*
X46900Y-47300D02*
X46900Y-46300D01*
X47900Y-46300D02*
X47900Y-47300D01*
X50900Y-37300D02*
X49900Y-37300D01*
X49900Y-36300D02*
X50900Y-36300D01*
X49900Y-37300D02*
X49900Y-36300D01*
X50900Y-36300D02*
X50900Y-37300D01*
X53650Y-50750D02*
X52650Y-50750D01*
X52650Y-49750D02*
X53650Y-49750D01*
X52650Y-50750D02*
X52650Y-49750D01*
X53650Y-49750D02*
X53650Y-50750D01*
X54650Y-50750D02*
X53650Y-50750D01*
X53650Y-49750D02*
X54650Y-49750D01*
X53650Y-50750D02*
X53650Y-49750D01*
X54650Y-49750D02*
X54650Y-50750D01*
X53650Y-45450D02*
X52650Y-45450D01*
X52650Y-44450D02*
X53650Y-44450D01*
X52650Y-45450D02*
X52650Y-44450D01*
X53650Y-44450D02*
X53650Y-45450D01*
X54650Y-45450D02*
X53650Y-45450D01*
X53650Y-44450D02*
X54650Y-44450D01*
X53650Y-45450D02*
X53650Y-44450D01*
X54650Y-44450D02*
X54650Y-45450D01*
X51850Y-42450D02*
X50850Y-42450D01*
X50850Y-41450D02*
X51850Y-41450D01*
X50850Y-42450D02*
X50850Y-41450D01*
X51850Y-41450D02*
X51850Y-42450D01*
X53100Y-39950D02*
X52100Y-39950D01*
X52100Y-38950D02*
X53100Y-38950D01*
X52100Y-39950D02*
X52100Y-38950D01*
X53100Y-38950D02*
X53100Y-39950D01*
X51800Y-45500D02*
X50800Y-45500D01*
X50800Y-44500D02*
X51800Y-44500D01*
X50800Y-45500D02*
X50800Y-44500D01*
X51800Y-44500D02*
X51800Y-45500D01*
X51800Y-50750D02*
X50800Y-50750D01*
X50800Y-49750D02*
X51800Y-49750D01*
X50800Y-50750D02*
X50800Y-49750D01*
X51800Y-49750D02*
X51800Y-50750D01*
X54600Y-40000D02*
X53600Y-40000D01*
X53600Y-39000D02*
X54600Y-39000D01*
X53600Y-40000D02*
X53600Y-39000D01*
X54600Y-39000D02*
X54600Y-40000D01*
X56150Y-40000D02*
X55150Y-40000D01*
X55150Y-39000D02*
X56150Y-39000D01*
X55150Y-40000D02*
X55150Y-39000D01*
X56150Y-39000D02*
X56150Y-40000D01*
X56150Y-45500D02*
X55150Y-45500D01*
X55150Y-44500D02*
X56150Y-44500D01*
X55150Y-45500D02*
X55150Y-44500D01*
X56150Y-44500D02*
X56150Y-45500D01*
X56100Y-50700D02*
X55100Y-50700D01*
X55100Y-49700D02*
X56100Y-49700D01*
X55100Y-50700D02*
X55100Y-49700D01*
X56100Y-49700D02*
X56100Y-50700D01*
G54D10*
X53415Y-52100D02*
G75*
G03X53415Y-52100I-265J0D01*
G74*
G01*
X54415Y-52600D02*
G75*
G03X54415Y-52600I-265J0D01*
G74*
G01*
X53415Y-53100D02*
G75*
G03X53415Y-53100I-265J0D01*
G74*
G01*
X54415Y-53600D02*
G75*
G03X54415Y-53600I-265J0D01*
G74*
G01*
X57466Y-51275D02*
G75*
G03X57466Y-51275I-718J0D01*
G74*
G01*
X57466Y-54424D02*
G75*
G03X57466Y-54424I-718J0D01*
G74*
G01*
X51670Y-34850D02*
G75*
G03X51670Y-34850I-270J0D01*
G74*
G01*
X51670Y-38850D02*
G75*
G03X51670Y-38850I-270J0D01*
G74*
G01*
X52870Y-34100D02*
G75*
G03X52870Y-34100I-270J0D01*
G74*
G01*
X52870Y-38100D02*
G75*
G03X52870Y-38100I-270J0D01*
G74*
G01*
X56974Y-34100D02*
G75*
G03X56974Y-34100I-324J0D01*
G74*
G01*
X56974Y-35100D02*
G75*
G03X56974Y-35100I-324J0D01*
G74*
G01*
X45224Y-39350D02*
G75*
G03X45224Y-39350I-324J0D01*
G74*
G01*
X45224Y-38350D02*
G75*
G03X45224Y-38350I-324J0D01*
G74*
G01*
X45224Y-37350D02*
G75*
G03X45224Y-37350I-324J0D01*
G74*
G01*
X45224Y-36350D02*
G75*
G03X45224Y-36350I-324J0D01*
G74*
G01*
X54904Y-34604D02*
X54904Y-35095D01*
X55395Y-35095D01*
X55395Y-34604D01*
X54904Y-34604D01*
X55395Y-37850D02*
G75*
G03X55395Y-37850I-245J0D01*
G74*
G01*
X53654Y-34604D02*
X53654Y-35095D01*
X54145Y-35095D01*
X54145Y-34604D01*
X53654Y-34604D01*
X54145Y-37850D02*
G75*
G03X54145Y-37850I-245J0D01*
G74*
G01*
X56895Y-36600D02*
G75*
G03X56895Y-36600I-245J0D01*
G74*
G01*
X56895Y-38600D02*
G75*
G03X56895Y-38600I-245J0D01*
G74*
G01*
X45224Y-47350D02*
G75*
G03X45224Y-47350I-324J0D01*
G74*
G01*
X45224Y-46350D02*
G75*
G03X45224Y-46350I-324J0D01*
G74*
G01*
X45224Y-45350D02*
G75*
G03X45224Y-45350I-324J0D01*
G74*
G01*
X45224Y-44350D02*
G75*
G03X45224Y-44350I-324J0D01*
G74*
G01*
X45224Y-43350D02*
G75*
G03X45224Y-43350I-324J0D01*
G74*
G01*
X53415Y-41600D02*
G75*
G03X53415Y-41600I-265J0D01*
G74*
G01*
X54415Y-42100D02*
G75*
G03X54415Y-42100I-265J0D01*
G74*
G01*
X53415Y-42600D02*
G75*
G03X53415Y-42600I-265J0D01*
G74*
G01*
X54415Y-43100D02*
G75*
G03X54415Y-43100I-265J0D01*
G74*
G01*
X57466Y-40775D02*
G75*
G03X57466Y-40775I-718J0D01*
G74*
G01*
X57466Y-43924D02*
G75*
G03X57466Y-43924I-718J0D01*
G74*
G01*
X53415Y-46850D02*
G75*
G03X53415Y-46850I-265J0D01*
G74*
G01*
X54415Y-47350D02*
G75*
G03X54415Y-47350I-265J0D01*
G74*
G01*
X53415Y-47850D02*
G75*
G03X53415Y-47850I-265J0D01*
G74*
G01*
X54415Y-48350D02*
G75*
G03X54415Y-48350I-265J0D01*
G74*
G01*
X57466Y-46025D02*
G75*
G03X57466Y-46025I-718J0D01*
G74*
G01*
X57466Y-49174D02*
G75*
G03X57466Y-49174I-718J0D01*
G74*
G01*
X48685Y-34850D02*
G75*
G03X48685Y-34850I-285J0D01*
G74*
G01*
X49685Y-34850D02*
G75*
G03X49685Y-34850I-285J0D01*
G74*
G01*
X48685Y-35850D02*
G75*
G03X48685Y-35850I-285J0D01*
G74*
G01*
X49685Y-35850D02*
G75*
G03X49685Y-35850I-285J0D01*
G74*
G01*
X48685Y-36850D02*
G75*
G03X48685Y-36850I-285J0D01*
G74*
G01*
X49685Y-36850D02*
G75*
G03X49685Y-36850I-285J0D01*
G74*
G01*
X48685Y-37850D02*
G75*
G03X48685Y-37850I-285J0D01*
G74*
G01*
X49685Y-37850D02*
G75*
G03X49685Y-37850I-285J0D01*
G74*
G01*
X48685Y-38850D02*
G75*
G03X48685Y-38850I-285J0D01*
G74*
G01*
X49685Y-38850D02*
G75*
G03X49685Y-38850I-285J0D01*
G74*
G01*
X48685Y-39850D02*
G75*
G03X48685Y-39850I-285J0D01*
G74*
G01*
X49685Y-39850D02*
G75*
G03X49685Y-39850I-285J0D01*
G74*
G01*
X48685Y-40850D02*
G75*
G03X48685Y-40850I-285J0D01*
G74*
G01*
X49685Y-40850D02*
G75*
G03X49685Y-40850I-285J0D01*
G74*
G01*
X48685Y-41850D02*
G75*
G03X48685Y-41850I-285J0D01*
G74*
G01*
X49685Y-41850D02*
G75*
G03X49685Y-41850I-285J0D01*
G74*
G01*
X48685Y-42850D02*
G75*
G03X48685Y-42850I-285J0D01*
G74*
G01*
X49685Y-42850D02*
G75*
G03X49685Y-42850I-285J0D01*
G74*
G01*
X48685Y-43850D02*
G75*
G03X48685Y-43850I-285J0D01*
G74*
G01*
X49685Y-43850D02*
G75*
G03X49685Y-43850I-285J0D01*
G74*
G01*
X48685Y-44850D02*
G75*
G03X48685Y-44850I-285J0D01*
G74*
G01*
X49685Y-44850D02*
G75*
G03X49685Y-44850I-285J0D01*
G74*
G01*
X48685Y-45850D02*
G75*
G03X48685Y-45850I-285J0D01*
G74*
G01*
X49685Y-45850D02*
G75*
G03X49685Y-45850I-285J0D01*
G74*
G01*
X48685Y-46850D02*
G75*
G03X48685Y-46850I-285J0D01*
G74*
G01*
X49685Y-46850D02*
G75*
G03X49685Y-46850I-285J0D01*
G74*
G01*
X48685Y-47850D02*
G75*
G03X48685Y-47850I-285J0D01*
G74*
G01*
X49685Y-47850D02*
G75*
G03X49685Y-47850I-285J0D01*
G74*
G01*
X48685Y-48850D02*
G75*
G03X48685Y-48850I-285J0D01*
G74*
G01*
X49685Y-48850D02*
G75*
G03X49685Y-48850I-285J0D01*
G74*
G01*
X48685Y-49850D02*
G75*
G03X48685Y-49850I-285J0D01*
G74*
G01*
X49685Y-49850D02*
G75*
G03X49685Y-49850I-285J0D01*
G74*
G01*
X48685Y-50850D02*
G75*
G03X48685Y-50850I-285J0D01*
G74*
G01*
X49685Y-50850D02*
G75*
G03X49685Y-50850I-285J0D01*
G74*
G01*
X48685Y-51850D02*
G75*
G03X48685Y-51850I-285J0D01*
G74*
G01*
X49685Y-51850D02*
G75*
G03X49685Y-51850I-285J0D01*
G74*
G01*
X48685Y-52850D02*
G75*
G03X48685Y-52850I-285J0D01*
G74*
G01*
X49685Y-52850D02*
G75*
G03X49685Y-52850I-285J0D01*
G74*
G01*
X48685Y-53850D02*
G75*
G03X48685Y-53850I-285J0D01*
G74*
G01*
X49685Y-53850D02*
G75*
G03X49685Y-53850I-285J0D01*
G74*
G01*
X46029Y-34529D02*
X46029Y-35070D01*
X46570Y-35070D01*
X46570Y-34529D01*
X46029Y-34529D01*
X46229Y-36429D02*
X46229Y-36970D01*
X46770Y-36970D01*
X46770Y-36429D01*
X46229Y-36429D01*
X47129Y-35629D02*
X47129Y-36170D01*
X47670Y-36170D01*
X47670Y-35629D01*
X47129Y-35629D01*
X47129Y-38529D02*
X47129Y-39070D01*
X47670Y-39070D01*
X47670Y-38529D01*
X47129Y-38529D01*
X47129Y-42529D02*
X47129Y-43070D01*
X47670Y-43070D01*
X47670Y-42529D01*
X47129Y-42529D01*
X47129Y-46529D02*
X47129Y-47070D01*
X47670Y-47070D01*
X47670Y-46529D01*
X47129Y-46529D01*
X50129Y-36529D02*
X50129Y-37070D01*
X50670Y-37070D01*
X50670Y-36529D01*
X50129Y-36529D01*
X52879Y-49979D02*
X52879Y-50520D01*
X53420Y-50520D01*
X53420Y-49979D01*
X52879Y-49979D01*
X53879Y-49979D02*
X53879Y-50520D01*
X54420Y-50520D01*
X54420Y-49979D01*
X53879Y-49979D01*
X52879Y-44679D02*
X52879Y-45220D01*
X53420Y-45220D01*
X53420Y-44679D01*
X52879Y-44679D01*
X53879Y-44679D02*
X53879Y-45220D01*
X54420Y-45220D01*
X54420Y-44679D01*
X53879Y-44679D01*
X51079Y-41679D02*
X51079Y-42220D01*
X51620Y-42220D01*
X51620Y-41679D01*
X51079Y-41679D01*
X52329Y-39179D02*
X52329Y-39720D01*
X52870Y-39720D01*
X52870Y-39179D01*
X52329Y-39179D01*
X51029Y-44729D02*
X51029Y-45270D01*
X51570Y-45270D01*
X51570Y-44729D01*
X51029Y-44729D01*
X51029Y-49979D02*
X51029Y-50520D01*
X51570Y-50520D01*
X51570Y-49979D01*
X51029Y-49979D01*
X53829Y-39229D02*
X53829Y-39770D01*
X54370Y-39770D01*
X54370Y-39229D01*
X53829Y-39229D01*
X55379Y-39229D02*
X55379Y-39770D01*
X55920Y-39770D01*
X55920Y-39229D01*
X55379Y-39229D01*
X55379Y-44729D02*
X55379Y-45270D01*
X55920Y-45270D01*
X55920Y-44729D01*
X55379Y-44729D01*
X55329Y-49929D02*
X55329Y-50470D01*
X55870Y-50470D01*
X55870Y-49929D01*
X55329Y-49929D01*
X51868Y-52315D02*
X51868Y-52596D01*
X51850Y-52653D01*
X51812Y-52690D01*
X51756Y-52709D01*
X51718Y-52709D01*
X52018Y-52315D02*
X52262Y-52315D01*
X52131Y-52465D01*
X52187Y-52465D01*
X52224Y-52484D01*
X52243Y-52503D01*
X52262Y-52540D01*
X52262Y-52634D01*
X52243Y-52671D01*
X52224Y-52690D01*
X52187Y-52709D01*
X52074Y-52709D01*
X52037Y-52690D01*
X52018Y-52671D01*
G54D15*
X51722Y-33583D02*
X51460Y-33750D01*
X51722Y-33869D02*
X51172Y-33869D01*
X51172Y-33678D01*
X51198Y-33630D01*
X51225Y-33607D01*
X51277Y-33583D01*
X51355Y-33583D01*
X51408Y-33607D01*
X51434Y-33630D01*
X51460Y-33678D01*
X51460Y-33869D01*
X51722Y-33107D02*
X51722Y-33392D01*
X51722Y-33250D02*
X51172Y-33250D01*
X51251Y-33297D01*
X51303Y-33345D01*
X51329Y-33392D01*
X52922Y-32833D02*
X52660Y-33000D01*
X52922Y-33119D02*
X52372Y-33119D01*
X52372Y-32928D01*
X52398Y-32880D01*
X52425Y-32857D01*
X52477Y-32833D01*
X52555Y-32833D01*
X52608Y-32857D01*
X52634Y-32880D01*
X52660Y-32928D01*
X52660Y-33119D01*
X52425Y-32642D02*
X52398Y-32619D01*
X52372Y-32571D01*
X52372Y-32452D01*
X52398Y-32404D01*
X52425Y-32380D01*
X52477Y-32357D01*
X52529Y-32357D01*
X52608Y-32380D01*
X52922Y-32666D01*
X52922Y-32357D01*
G54D10*
X57415Y-35178D02*
X57696Y-35178D01*
X57753Y-35196D01*
X57790Y-35234D01*
X57809Y-35290D01*
X57809Y-35328D01*
X57809Y-34990D02*
X57415Y-34990D01*
X57415Y-34840D01*
X57434Y-34803D01*
X57453Y-34784D01*
X57490Y-34765D01*
X57546Y-34765D01*
X57584Y-34784D01*
X57603Y-34803D01*
X57621Y-34840D01*
X57621Y-34990D01*
X57809Y-34390D02*
X57809Y-34615D01*
X57809Y-34503D02*
X57415Y-34503D01*
X57471Y-34540D01*
X57509Y-34578D01*
X57528Y-34615D01*
X38350Y-37565D02*
X38350Y-37884D01*
X38368Y-37921D01*
X38387Y-37940D01*
X38425Y-37959D01*
X38500Y-37959D01*
X38537Y-37940D01*
X38556Y-37921D01*
X38575Y-37884D01*
X38575Y-37565D01*
X38968Y-37959D02*
X38743Y-37959D01*
X38856Y-37959D02*
X38856Y-37565D01*
X38818Y-37621D01*
X38781Y-37659D01*
X38743Y-37678D01*
G54D15*
X55411Y-33845D02*
X55011Y-33845D01*
X55011Y-33749D01*
X55030Y-33692D01*
X55069Y-33654D01*
X55107Y-33635D01*
X55183Y-33616D01*
X55240Y-33616D01*
X55316Y-33635D01*
X55354Y-33654D01*
X55392Y-33692D01*
X55411Y-33749D01*
X55411Y-33845D01*
X55050Y-33464D02*
X55030Y-33445D01*
X55011Y-33407D01*
X55011Y-33311D01*
X55030Y-33273D01*
X55050Y-33254D01*
X55088Y-33235D01*
X55126Y-33235D01*
X55183Y-33254D01*
X55411Y-33483D01*
X55411Y-33235D01*
X54111Y-33845D02*
X53711Y-33845D01*
X53711Y-33749D01*
X53730Y-33692D01*
X53769Y-33654D01*
X53807Y-33635D01*
X53883Y-33616D01*
X53940Y-33616D01*
X54016Y-33635D01*
X54054Y-33654D01*
X54092Y-33692D01*
X54111Y-33749D01*
X54111Y-33845D01*
X54111Y-33235D02*
X54111Y-33464D01*
X54111Y-33349D02*
X53711Y-33349D01*
X53769Y-33388D01*
X53807Y-33426D01*
X53826Y-33464D01*
X57411Y-38123D02*
X57811Y-37990D01*
X57411Y-37857D01*
X57811Y-37495D02*
X57621Y-37628D01*
X57811Y-37723D02*
X57411Y-37723D01*
X57411Y-37571D01*
X57430Y-37533D01*
X57450Y-37514D01*
X57488Y-37495D01*
X57545Y-37495D01*
X57583Y-37514D01*
X57602Y-37533D01*
X57621Y-37571D01*
X57621Y-37723D01*
X57811Y-37114D02*
X57811Y-37342D01*
X57811Y-37228D02*
X57411Y-37228D01*
X57469Y-37266D01*
X57507Y-37304D01*
X57526Y-37342D01*
G54D10*
X38500Y-49465D02*
X38500Y-49784D01*
X38518Y-49821D01*
X38537Y-49840D01*
X38575Y-49859D01*
X38650Y-49859D01*
X38687Y-49840D01*
X38706Y-49821D01*
X38725Y-49784D01*
X38725Y-49465D01*
X38893Y-49503D02*
X38912Y-49484D01*
X38949Y-49465D01*
X39043Y-49465D01*
X39081Y-49484D01*
X39099Y-49503D01*
X39118Y-49540D01*
X39118Y-49578D01*
X39099Y-49634D01*
X38874Y-49859D01*
X39118Y-49859D01*
X58868Y-39365D02*
X58868Y-39646D01*
X58850Y-39703D01*
X58812Y-39740D01*
X58756Y-39759D01*
X58718Y-39759D01*
X59262Y-39759D02*
X59037Y-39759D01*
X59149Y-39759D02*
X59149Y-39365D01*
X59112Y-39421D01*
X59074Y-39459D01*
X59037Y-39478D01*
X51818Y-47465D02*
X51818Y-47746D01*
X51800Y-47803D01*
X51762Y-47840D01*
X51706Y-47859D01*
X51668Y-47859D01*
X51987Y-47503D02*
X52006Y-47484D01*
X52043Y-47465D01*
X52137Y-47465D01*
X52174Y-47484D01*
X52193Y-47503D01*
X52212Y-47540D01*
X52212Y-47578D01*
X52193Y-47634D01*
X51968Y-47859D01*
X52212Y-47859D01*
X46859Y-55109D02*
X46859Y-54715D01*
X47009Y-54715D01*
X47046Y-54734D01*
X47065Y-54753D01*
X47084Y-54790D01*
X47084Y-54846D01*
X47065Y-54884D01*
X47046Y-54903D01*
X47009Y-54921D01*
X46859Y-54921D01*
X47459Y-55109D02*
X47234Y-55109D01*
X47346Y-55109D02*
X47346Y-54715D01*
X47309Y-54771D01*
X47271Y-54809D01*
X47234Y-54828D01*
M02*
