G04 (created by PCBNEW (2013-june-11)-stable) date Sun 20 Aug 2017 10:14:19 PM EDT*
%MOIN*%
G04 Gerber Fmt 3.4, Leading zero omitted, Abs format*
%FSLAX34Y34*%
G01*
G70*
G90*
G04 APERTURE LIST*
%ADD10C,0.00590551*%
%ADD11C,0.00393701*%
%ADD12C,0.0590551*%
%ADD13C,0.149606*%
%ADD14C,0.0708661*%
%ADD15R,0.056X0.056*%
%ADD16C,0.056*%
%ADD17C,0.06*%
%ADD18R,0.08X0.06*%
%ADD19C,0.0629921*%
%ADD20C,0.0551181*%
%ADD21C,0.035*%
%ADD22C,0.02*%
G04 APERTURE END LIST*
G54D10*
G54D11*
X63400Y-68400D02*
X86700Y-68400D01*
X86600Y-46000D02*
X63400Y-46000D01*
X87800Y-47200D02*
G75*
G03X86600Y-46000I-1200J0D01*
G74*
G01*
X62200Y-61100D02*
X62200Y-67200D01*
X62600Y-60700D02*
X63800Y-60700D01*
X64200Y-54400D02*
X64200Y-60300D01*
X62600Y-54000D02*
X63800Y-54000D01*
X62200Y-47200D02*
X62200Y-53600D01*
X63400Y-46000D02*
G75*
G03X62200Y-47200I0J-1200D01*
G74*
G01*
X87800Y-67100D02*
X87800Y-47100D01*
X64200Y-54400D02*
G75*
G03X63800Y-54000I-400J0D01*
G74*
G01*
X63800Y-60700D02*
G75*
G03X64200Y-60300I0J400D01*
G74*
G01*
X62600Y-60700D02*
G75*
G03X62200Y-61100I0J-400D01*
G74*
G01*
X62200Y-53600D02*
G75*
G03X62600Y-54000I400J0D01*
G74*
G01*
X62200Y-67200D02*
G75*
G03X63400Y-68400I1200J0D01*
G74*
G01*
X86700Y-68399D02*
G75*
G03X87799Y-67099I-100J1199D01*
G74*
G01*
G54D12*
X83550Y-61000D03*
X83050Y-62000D03*
X82550Y-61000D03*
X82050Y-62000D03*
G54D13*
X84374Y-64598D03*
X81225Y-64598D03*
G54D12*
X76150Y-61000D03*
X75650Y-62000D03*
X75150Y-61000D03*
X74650Y-62000D03*
G54D13*
X76974Y-64598D03*
X73825Y-64598D03*
G54D12*
X70950Y-61000D03*
X70450Y-62000D03*
X69950Y-61000D03*
X69450Y-62000D03*
G54D13*
X71774Y-64598D03*
X68625Y-64598D03*
G54D14*
X64000Y-49400D03*
X63000Y-49400D03*
G54D15*
X64200Y-62100D03*
G54D16*
X64200Y-65100D03*
G54D15*
X63200Y-62100D03*
G54D16*
X63200Y-65100D03*
G54D17*
X66600Y-61600D03*
X66600Y-65600D03*
X65400Y-61600D03*
X65400Y-65600D03*
G54D18*
X63000Y-51050D03*
X63000Y-52350D03*
G54D19*
X65500Y-48100D03*
X65500Y-47100D03*
X66500Y-48100D03*
X66500Y-47100D03*
X67500Y-48100D03*
X67500Y-47100D03*
X68500Y-48100D03*
X68500Y-47100D03*
X69500Y-48100D03*
X69500Y-47100D03*
X70500Y-48100D03*
X70500Y-47100D03*
X71500Y-48100D03*
X71500Y-47100D03*
X72500Y-48100D03*
X72500Y-47100D03*
X73500Y-48100D03*
X73500Y-47100D03*
X74500Y-48100D03*
X74500Y-47100D03*
X75500Y-48100D03*
X75500Y-47100D03*
X76500Y-48100D03*
X76500Y-47100D03*
X77500Y-48100D03*
X77500Y-47100D03*
X78500Y-48100D03*
X78500Y-47100D03*
X79500Y-48100D03*
X79500Y-47100D03*
X80500Y-48100D03*
X80500Y-47100D03*
X81500Y-48100D03*
X81500Y-47100D03*
X82500Y-48100D03*
X82500Y-47100D03*
X83500Y-48100D03*
X83500Y-47100D03*
X84500Y-48100D03*
X84500Y-47100D03*
G54D20*
X74500Y-46400D03*
X73500Y-46400D03*
X72500Y-46400D03*
X71500Y-46400D03*
X70500Y-46400D03*
X69500Y-46400D03*
X68500Y-46400D03*
X67500Y-46400D03*
X66500Y-46400D03*
X65500Y-46400D03*
X71500Y-49300D03*
X70500Y-49300D03*
X69500Y-49300D03*
X68500Y-49300D03*
X67500Y-49300D03*
X65500Y-49300D03*
X66500Y-49300D03*
X76500Y-49300D03*
X75500Y-49300D03*
X76500Y-46400D03*
X84500Y-49300D03*
X83500Y-49300D03*
X82500Y-49300D03*
X81500Y-49300D03*
X80500Y-49300D03*
X79500Y-49300D03*
X78500Y-49300D03*
X77500Y-49300D03*
X74500Y-49300D03*
X73500Y-49300D03*
X72500Y-49300D03*
X84500Y-46400D03*
X83500Y-46400D03*
X82500Y-46400D03*
X81500Y-46400D03*
X80500Y-46400D03*
X79500Y-46400D03*
X78500Y-46400D03*
X77500Y-46400D03*
X75500Y-46400D03*
G54D14*
X65500Y-51000D03*
X65500Y-52000D03*
X65500Y-53000D03*
X65500Y-54000D03*
X65500Y-55000D03*
X65500Y-56000D03*
X65500Y-57000D03*
X65500Y-58000D03*
X65500Y-59000D03*
X66500Y-51000D03*
X66500Y-52000D03*
X66500Y-53000D03*
X66500Y-54000D03*
X66500Y-55000D03*
X66500Y-56000D03*
X66500Y-57000D03*
X66500Y-58000D03*
X66500Y-59000D03*
X67500Y-51000D03*
X67500Y-52000D03*
X67500Y-53000D03*
X67500Y-54000D03*
X67500Y-55000D03*
X67500Y-56000D03*
X67500Y-57000D03*
X67500Y-58000D03*
X67500Y-59000D03*
X68500Y-51000D03*
X68500Y-52000D03*
X68500Y-53000D03*
X68500Y-54000D03*
X68500Y-55000D03*
X68500Y-56000D03*
X68500Y-57000D03*
X68500Y-58000D03*
X68500Y-59000D03*
X69500Y-51000D03*
X69500Y-52000D03*
X69500Y-53000D03*
X69500Y-54000D03*
X69500Y-55000D03*
X69500Y-56000D03*
X69500Y-57000D03*
X69500Y-58000D03*
X69500Y-59000D03*
X70500Y-51000D03*
X70500Y-52000D03*
X70500Y-53000D03*
X70500Y-54000D03*
X70500Y-55000D03*
X70500Y-56000D03*
X70500Y-57000D03*
X70500Y-58000D03*
X70500Y-59000D03*
X71500Y-51000D03*
X71500Y-52000D03*
X71500Y-53000D03*
X71500Y-54000D03*
X71500Y-55000D03*
X71500Y-56000D03*
X71500Y-57000D03*
X71500Y-58000D03*
X71500Y-59000D03*
X72500Y-51000D03*
X72500Y-52000D03*
X72500Y-53000D03*
X72500Y-54000D03*
X72500Y-55000D03*
X72500Y-56000D03*
X72500Y-57000D03*
X72500Y-58000D03*
X72500Y-59000D03*
X84500Y-51000D03*
X84500Y-52000D03*
X84500Y-53000D03*
X84500Y-54000D03*
X84500Y-55000D03*
X84500Y-56000D03*
X84500Y-57000D03*
X84500Y-58000D03*
X84500Y-59000D03*
X83500Y-51000D03*
X83500Y-52000D03*
X83500Y-53000D03*
X83500Y-54000D03*
X83500Y-55000D03*
X83500Y-56000D03*
X83500Y-57000D03*
X83500Y-58000D03*
X83500Y-59000D03*
X82500Y-51000D03*
X82500Y-52000D03*
X82500Y-53000D03*
X82500Y-54000D03*
X82500Y-55000D03*
X82500Y-56000D03*
X82500Y-57000D03*
X82500Y-58000D03*
X82500Y-59000D03*
X81500Y-51000D03*
X81500Y-52000D03*
X81500Y-53000D03*
X81500Y-54000D03*
X81500Y-55000D03*
X81500Y-56000D03*
X81500Y-57000D03*
X81500Y-58000D03*
X81500Y-59000D03*
X80500Y-51000D03*
X80500Y-52000D03*
X80500Y-53000D03*
X80500Y-54000D03*
X80500Y-55000D03*
X80500Y-56000D03*
X80500Y-57000D03*
X80500Y-58000D03*
X80500Y-59000D03*
X79500Y-51000D03*
X79500Y-52000D03*
X79500Y-53000D03*
X79500Y-54000D03*
X79500Y-55000D03*
X79500Y-56000D03*
X79500Y-57000D03*
X79500Y-58000D03*
X79500Y-59000D03*
X78500Y-51000D03*
X78500Y-52000D03*
X78500Y-53000D03*
X78500Y-54000D03*
X78500Y-55000D03*
X78500Y-56000D03*
X78500Y-57000D03*
X78500Y-58000D03*
X78500Y-59000D03*
X77500Y-51000D03*
X77500Y-52000D03*
X77500Y-53000D03*
X77500Y-54000D03*
X77500Y-55000D03*
X77500Y-56000D03*
X77500Y-57000D03*
X77500Y-58000D03*
X77500Y-59000D03*
X76500Y-51000D03*
X76500Y-52000D03*
X76500Y-53000D03*
X76500Y-54000D03*
X76500Y-55000D03*
X76500Y-56000D03*
X76500Y-57000D03*
X76500Y-58000D03*
X76500Y-59000D03*
X75500Y-51000D03*
X75500Y-52000D03*
X75500Y-53000D03*
X75500Y-54000D03*
X75500Y-55000D03*
X75500Y-56000D03*
X75500Y-57000D03*
X75500Y-58000D03*
X75500Y-59000D03*
X74500Y-51000D03*
X74500Y-52000D03*
X74500Y-53000D03*
X74500Y-54000D03*
X74500Y-55000D03*
X74500Y-56000D03*
X74500Y-57000D03*
X74500Y-58000D03*
X74500Y-59000D03*
X73500Y-51000D03*
X73500Y-52000D03*
X73500Y-53000D03*
X73500Y-54000D03*
X73500Y-55000D03*
X73500Y-56000D03*
X73500Y-57000D03*
X73500Y-58000D03*
X73500Y-59000D03*
G54D21*
X67600Y-60200D03*
X67600Y-61600D03*
G54D22*
X76575Y-59825D02*
X76525Y-59825D01*
X83400Y-62000D02*
X84200Y-61200D01*
X84200Y-61200D02*
X84200Y-60800D01*
X84200Y-60800D02*
X83225Y-59825D01*
X83050Y-62000D02*
X83400Y-62000D01*
X83225Y-59825D02*
X76575Y-59825D01*
X76525Y-59825D02*
X76150Y-60200D01*
X64200Y-65100D02*
X64200Y-65000D01*
X64200Y-65000D02*
X67600Y-61600D01*
X75650Y-62000D02*
X76200Y-62000D01*
X76200Y-60200D02*
X76150Y-60200D01*
X76150Y-60200D02*
X71000Y-60200D01*
X76800Y-60800D02*
X76200Y-60200D01*
X76800Y-61400D02*
X76800Y-60800D01*
X76200Y-62000D02*
X76800Y-61400D01*
X70450Y-62000D02*
X71000Y-62000D01*
X71800Y-60800D02*
X71200Y-60200D01*
X71800Y-61200D02*
X71800Y-60800D01*
X71000Y-62000D02*
X71800Y-61200D01*
X69500Y-49300D02*
X68800Y-50000D01*
X65800Y-60200D02*
X67600Y-60200D01*
X64800Y-59200D02*
X65800Y-60200D01*
X64800Y-50600D02*
X64800Y-59200D01*
X65400Y-50000D02*
X64800Y-50600D01*
X68800Y-50000D02*
X65400Y-50000D01*
X67600Y-60200D02*
X71000Y-60200D01*
X71000Y-60200D02*
X71200Y-60200D01*
X82050Y-62000D02*
X82050Y-61850D01*
X75450Y-62800D02*
X74650Y-62000D01*
X76200Y-62800D02*
X75450Y-62800D01*
X78800Y-60200D02*
X76200Y-62800D01*
X80400Y-60200D02*
X78800Y-60200D01*
X82050Y-61850D02*
X80400Y-60200D01*
X69450Y-62000D02*
X69450Y-62050D01*
X74050Y-62600D02*
X74650Y-62000D01*
X70000Y-62600D02*
X74050Y-62600D01*
X69450Y-62050D02*
X70000Y-62600D01*
X69450Y-62000D02*
X69400Y-62000D01*
X64400Y-53750D02*
X63000Y-52350D01*
X64400Y-60000D02*
X64400Y-53750D01*
X65000Y-60600D02*
X64400Y-60000D01*
X68000Y-60600D02*
X65000Y-60600D01*
X69400Y-62000D02*
X68000Y-60600D01*
X63000Y-49400D02*
X63000Y-51050D01*
M02*
