M48
;DRILL file {Pcbnew (2013-june-11)-stable} date Sun 20 Aug 2017 10:14:55 PM EDT
;FORMAT={-:-/ absolute / metric / decimal}
FMAT,2
METRIC,TZ
T1C0.610
T2C0.635
T3C0.800
T4C0.813
T5C1.000
%
G90
G05
M71
T1
X160.528Y-157.734
X160.528Y-165.354
X163.068Y-157.734
X163.068Y-165.354
T2
X171.704Y-152.908
X171.704Y-156.464
T3
X176.403Y-157.48
X177.673Y-154.94
X178.943Y-157.48
X180.213Y-154.94
X189.611Y-157.48
X190.881Y-154.94
X192.151Y-157.48
X193.421Y-154.94
X208.407Y-157.48
X209.677Y-154.94
X210.947Y-157.48
X212.217Y-154.94
T4
X166.116Y-156.464
X166.116Y-166.624
X169.164Y-156.464
X169.164Y-166.624
T5
X160.02Y-125.476
X162.56Y-125.476
X166.37Y-117.856
X166.37Y-119.634
X166.37Y-122.174
X166.37Y-125.222
X166.37Y-129.54
X166.37Y-132.08
X166.37Y-134.62
X166.37Y-137.16
X166.37Y-139.7
X166.37Y-142.24
X166.37Y-144.78
X166.37Y-147.32
X166.37Y-149.86
X168.91Y-117.856
X168.91Y-119.634
X168.91Y-122.174
X168.91Y-125.222
X168.91Y-129.54
X168.91Y-132.08
X168.91Y-134.62
X168.91Y-137.16
X168.91Y-139.7
X168.91Y-142.24
X168.91Y-144.78
X168.91Y-147.32
X168.91Y-149.86
X171.45Y-117.856
X171.45Y-119.634
X171.45Y-122.174
X171.45Y-125.222
X171.45Y-129.54
X171.45Y-132.08
X171.45Y-134.62
X171.45Y-137.16
X171.45Y-139.7
X171.45Y-142.24
X171.45Y-144.78
X171.45Y-147.32
X171.45Y-149.86
X173.99Y-117.856
X173.99Y-119.634
X173.99Y-122.174
X173.99Y-125.222
X173.99Y-129.54
X173.99Y-132.08
X173.99Y-134.62
X173.99Y-137.16
X173.99Y-139.7
X173.99Y-142.24
X173.99Y-144.78
X173.99Y-147.32
X173.99Y-149.86
X176.53Y-117.856
X176.53Y-119.634
X176.53Y-122.174
X176.53Y-125.222
X176.53Y-129.54
X176.53Y-132.08
X176.53Y-134.62
X176.53Y-137.16
X176.53Y-139.7
X176.53Y-142.24
X176.53Y-144.78
X176.53Y-147.32
X176.53Y-149.86
X179.07Y-117.856
X179.07Y-119.634
X179.07Y-122.174
X179.07Y-125.222
X179.07Y-129.54
X179.07Y-132.08
X179.07Y-134.62
X179.07Y-137.16
X179.07Y-139.7
X179.07Y-142.24
X179.07Y-144.78
X179.07Y-147.32
X179.07Y-149.86
X181.61Y-117.856
X181.61Y-119.634
X181.61Y-122.174
X181.61Y-125.222
X181.61Y-129.54
X181.61Y-132.08
X181.61Y-134.62
X181.61Y-137.16
X181.61Y-139.7
X181.61Y-142.24
X181.61Y-144.78
X181.61Y-147.32
X181.61Y-149.86
X184.15Y-117.856
X184.15Y-119.634
X184.15Y-122.174
X184.15Y-125.222
X184.15Y-129.54
X184.15Y-132.08
X184.15Y-134.62
X184.15Y-137.16
X184.15Y-139.7
X184.15Y-142.24
X184.15Y-144.78
X184.15Y-147.32
X184.15Y-149.86
X186.69Y-117.856
X186.69Y-119.634
X186.69Y-122.174
X186.69Y-125.222
X186.69Y-129.54
X186.69Y-132.08
X186.69Y-134.62
X186.69Y-137.16
X186.69Y-139.7
X186.69Y-142.24
X186.69Y-144.78
X186.69Y-147.32
X186.69Y-149.86
X189.23Y-117.856
X189.23Y-119.634
X189.23Y-122.174
X189.23Y-125.222
X189.23Y-129.54
X189.23Y-132.08
X189.23Y-134.62
X189.23Y-137.16
X189.23Y-139.7
X189.23Y-142.24
X189.23Y-144.78
X189.23Y-147.32
X189.23Y-149.86
X191.77Y-117.856
X191.77Y-119.634
X191.77Y-122.174
X191.77Y-125.222
X191.77Y-129.54
X191.77Y-132.08
X191.77Y-134.62
X191.77Y-137.16
X191.77Y-139.7
X191.77Y-142.24
X191.77Y-144.78
X191.77Y-147.32
X191.77Y-149.86
X194.31Y-117.856
X194.31Y-119.634
X194.31Y-122.174
X194.31Y-125.222
X194.31Y-129.54
X194.31Y-132.08
X194.31Y-134.62
X194.31Y-137.16
X194.31Y-139.7
X194.31Y-142.24
X194.31Y-144.78
X194.31Y-147.32
X194.31Y-149.86
X196.85Y-117.856
X196.85Y-119.634
X196.85Y-122.174
X196.85Y-125.222
X196.85Y-129.54
X196.85Y-132.08
X196.85Y-134.62
X196.85Y-137.16
X196.85Y-139.7
X196.85Y-142.24
X196.85Y-144.78
X196.85Y-147.32
X196.85Y-149.86
X199.39Y-117.856
X199.39Y-119.634
X199.39Y-122.174
X199.39Y-125.222
X199.39Y-129.54
X199.39Y-132.08
X199.39Y-134.62
X199.39Y-137.16
X199.39Y-139.7
X199.39Y-142.24
X199.39Y-144.78
X199.39Y-147.32
X199.39Y-149.86
X201.93Y-117.856
X201.93Y-119.634
X201.93Y-122.174
X201.93Y-125.222
X201.93Y-129.54
X201.93Y-132.08
X201.93Y-134.62
X201.93Y-137.16
X201.93Y-139.7
X201.93Y-142.24
X201.93Y-144.78
X201.93Y-147.32
X201.93Y-149.86
X204.47Y-117.856
X204.47Y-119.634
X204.47Y-122.174
X204.47Y-125.222
X204.47Y-129.54
X204.47Y-132.08
X204.47Y-134.62
X204.47Y-137.16
X204.47Y-139.7
X204.47Y-142.24
X204.47Y-144.78
X204.47Y-147.32
X204.47Y-149.86
X207.01Y-117.856
X207.01Y-119.634
X207.01Y-122.174
X207.01Y-125.222
X207.01Y-129.54
X207.01Y-132.08
X207.01Y-134.62
X207.01Y-137.16
X207.01Y-139.7
X207.01Y-142.24
X207.01Y-144.78
X207.01Y-147.32
X207.01Y-149.86
X209.55Y-117.856
X209.55Y-119.634
X209.55Y-122.174
X209.55Y-125.222
X209.55Y-129.54
X209.55Y-132.08
X209.55Y-134.62
X209.55Y-137.16
X209.55Y-139.7
X209.55Y-142.24
X209.55Y-144.78
X209.55Y-147.32
X209.55Y-149.86
X212.09Y-117.856
X212.09Y-119.634
X212.09Y-122.174
X212.09Y-125.222
X212.09Y-129.54
X212.09Y-132.08
X212.09Y-134.62
X212.09Y-137.16
X212.09Y-139.7
X212.09Y-142.24
X212.09Y-144.78
X212.09Y-147.32
X212.09Y-149.86
X214.63Y-117.856
X214.63Y-119.634
X214.63Y-122.174
X214.63Y-125.222
X214.63Y-129.54
X214.63Y-132.08
X214.63Y-134.62
X214.63Y-137.16
X214.63Y-139.7
X214.63Y-142.24
X214.63Y-144.78
X214.63Y-147.32
X214.63Y-149.86
T0
M30
