G04 (created by PCBNEW (2013-june-11)-stable) date Mon 12 Oct 2015 07:54:12 PM CEST*
%MOIN*%
G04 Gerber Fmt 3.4, Leading zero omitted, Abs format*
%FSLAX34Y34*%
G01*
G70*
G90*
G04 APERTURE LIST*
%ADD10C,0.005*%
%ADD11C,0.00393701*%
%ADD12C,0.00787402*%
%ADD13C,0.011811*%
G04 APERTURE END LIST*
G54D10*
G54D11*
X37400Y-57100D02*
X37400Y-31600D01*
X60400Y-57100D02*
X37400Y-57100D01*
X60400Y-31600D02*
X60400Y-57100D01*
X37400Y-31600D02*
X60400Y-31600D01*
G54D12*
X52992Y-41442D02*
X53307Y-41757D01*
X53307Y-41442D02*
X52992Y-41757D01*
X52992Y-42442D02*
X53307Y-42757D01*
X53307Y-42442D02*
X52992Y-42757D01*
X52992Y-46692D02*
X53307Y-47007D01*
X53307Y-46692D02*
X52992Y-47007D01*
X52992Y-47692D02*
X53307Y-48007D01*
X53307Y-47692D02*
X52992Y-48007D01*
X52992Y-51942D02*
X53307Y-52257D01*
X53307Y-51942D02*
X52992Y-52257D01*
X52992Y-52942D02*
X53307Y-53257D01*
X53307Y-52942D02*
X52992Y-53257D01*
X53992Y-41942D02*
X54307Y-42257D01*
X54307Y-41942D02*
X53992Y-42257D01*
X53992Y-42942D02*
X54307Y-43257D01*
X54307Y-42942D02*
X53992Y-43257D01*
X53992Y-47192D02*
X54307Y-47507D01*
X54307Y-47192D02*
X53992Y-47507D01*
X53992Y-48192D02*
X54307Y-48507D01*
X54307Y-48192D02*
X53992Y-48507D01*
X53992Y-52442D02*
X54307Y-52757D01*
X54307Y-52442D02*
X53992Y-52757D01*
X53992Y-53442D02*
X54307Y-53757D01*
X54307Y-53442D02*
X53992Y-53757D01*
X51560Y-34850D02*
G75*
G03X51560Y-34850I-160J0D01*
G74*
G01*
X51560Y-38850D02*
G75*
G03X51560Y-38850I-160J0D01*
G74*
G01*
X52760Y-34100D02*
G75*
G03X52760Y-34100I-160J0D01*
G74*
G01*
X52760Y-38100D02*
G75*
G03X52760Y-38100I-160J0D01*
G74*
G01*
X54060Y-34850D02*
G75*
G03X54060Y-34850I-160J0D01*
G74*
G01*
X54060Y-37850D02*
G75*
G03X54060Y-37850I-160J0D01*
G74*
G01*
X55310Y-34850D02*
G75*
G03X55310Y-34850I-160J0D01*
G74*
G01*
X55310Y-37850D02*
G75*
G03X55310Y-37850I-160J0D01*
G74*
G01*
X56810Y-36600D02*
G75*
G03X56810Y-36600I-160J0D01*
G74*
G01*
X56810Y-38600D02*
G75*
G03X56810Y-38600I-160J0D01*
G74*
G01*
X44900Y-36153D02*
X44900Y-36546D01*
X44703Y-36350D02*
X45096Y-36350D01*
X44900Y-37153D02*
X44900Y-37546D01*
X44703Y-37350D02*
X45096Y-37350D01*
X44900Y-38153D02*
X44900Y-38546D01*
X44703Y-38350D02*
X45096Y-38350D01*
X44900Y-39153D02*
X44900Y-39546D01*
X44703Y-39350D02*
X45096Y-39350D01*
X44900Y-43153D02*
X44900Y-43546D01*
X44703Y-43350D02*
X45096Y-43350D01*
X44900Y-44153D02*
X44900Y-44546D01*
X44703Y-44350D02*
X45096Y-44350D01*
X44900Y-45153D02*
X44900Y-45546D01*
X44703Y-45350D02*
X45096Y-45350D01*
X44900Y-46153D02*
X44900Y-46546D01*
X44703Y-46350D02*
X45096Y-46350D01*
X44900Y-47153D02*
X44900Y-47546D01*
X44703Y-47350D02*
X45096Y-47350D01*
X48400Y-34653D02*
X48400Y-35046D01*
X48203Y-34850D02*
X48596Y-34850D01*
X48400Y-35653D02*
X48400Y-36046D01*
X48203Y-35850D02*
X48596Y-35850D01*
X48400Y-36653D02*
X48400Y-37046D01*
X48203Y-36850D02*
X48596Y-36850D01*
X48400Y-37653D02*
X48400Y-38046D01*
X48203Y-37850D02*
X48596Y-37850D01*
X48400Y-38653D02*
X48400Y-39046D01*
X48203Y-38850D02*
X48596Y-38850D01*
X48400Y-39653D02*
X48400Y-40046D01*
X48203Y-39850D02*
X48596Y-39850D01*
X48400Y-40653D02*
X48400Y-41046D01*
X48203Y-40850D02*
X48596Y-40850D01*
X48400Y-41653D02*
X48400Y-42046D01*
X48203Y-41850D02*
X48596Y-41850D01*
X48400Y-42653D02*
X48400Y-43046D01*
X48203Y-42850D02*
X48596Y-42850D01*
X48400Y-43653D02*
X48400Y-44046D01*
X48203Y-43850D02*
X48596Y-43850D01*
X48400Y-44653D02*
X48400Y-45046D01*
X48203Y-44850D02*
X48596Y-44850D01*
X48400Y-45653D02*
X48400Y-46046D01*
X48203Y-45850D02*
X48596Y-45850D01*
X48400Y-46653D02*
X48400Y-47046D01*
X48203Y-46850D02*
X48596Y-46850D01*
X48400Y-47653D02*
X48400Y-48046D01*
X48203Y-47850D02*
X48596Y-47850D01*
X48400Y-48653D02*
X48400Y-49046D01*
X48203Y-48850D02*
X48596Y-48850D01*
X48400Y-49653D02*
X48400Y-50046D01*
X48203Y-49850D02*
X48596Y-49850D01*
X48400Y-50653D02*
X48400Y-51046D01*
X48203Y-50850D02*
X48596Y-50850D01*
X48400Y-51653D02*
X48400Y-52046D01*
X48203Y-51850D02*
X48596Y-51850D01*
X48400Y-52653D02*
X48400Y-53046D01*
X48203Y-52850D02*
X48596Y-52850D01*
X48400Y-53653D02*
X48400Y-54046D01*
X48203Y-53850D02*
X48596Y-53850D01*
X49400Y-34653D02*
X49400Y-35046D01*
X49203Y-34850D02*
X49596Y-34850D01*
X49400Y-35653D02*
X49400Y-36046D01*
X49203Y-35850D02*
X49596Y-35850D01*
X49400Y-36653D02*
X49400Y-37046D01*
X49203Y-36850D02*
X49596Y-36850D01*
X49400Y-37653D02*
X49400Y-38046D01*
X49203Y-37850D02*
X49596Y-37850D01*
X49400Y-38653D02*
X49400Y-39046D01*
X49203Y-38850D02*
X49596Y-38850D01*
X49400Y-39653D02*
X49400Y-40046D01*
X49203Y-39850D02*
X49596Y-39850D01*
X49400Y-40653D02*
X49400Y-41046D01*
X49203Y-40850D02*
X49596Y-40850D01*
X49400Y-41653D02*
X49400Y-42046D01*
X49203Y-41850D02*
X49596Y-41850D01*
X49400Y-42653D02*
X49400Y-43046D01*
X49203Y-42850D02*
X49596Y-42850D01*
X49400Y-43653D02*
X49400Y-44046D01*
X49203Y-43850D02*
X49596Y-43850D01*
X49400Y-44653D02*
X49400Y-45046D01*
X49203Y-44850D02*
X49596Y-44850D01*
X49400Y-45653D02*
X49400Y-46046D01*
X49203Y-45850D02*
X49596Y-45850D01*
X49400Y-46653D02*
X49400Y-47046D01*
X49203Y-46850D02*
X49596Y-46850D01*
X49400Y-47653D02*
X49400Y-48046D01*
X49203Y-47850D02*
X49596Y-47850D01*
X49400Y-48653D02*
X49400Y-49046D01*
X49203Y-48850D02*
X49596Y-48850D01*
X49400Y-49653D02*
X49400Y-50046D01*
X49203Y-49850D02*
X49596Y-49850D01*
X49400Y-50653D02*
X49400Y-51046D01*
X49203Y-50850D02*
X49596Y-50850D01*
X49400Y-51653D02*
X49400Y-52046D01*
X49203Y-51850D02*
X49596Y-51850D01*
X49400Y-52653D02*
X49400Y-53046D01*
X49203Y-52850D02*
X49596Y-52850D01*
X49400Y-53653D02*
X49400Y-54046D01*
X49203Y-53850D02*
X49596Y-53850D01*
X56650Y-33903D02*
X56650Y-34296D01*
X56453Y-34100D02*
X56846Y-34100D01*
X56650Y-34903D02*
X56650Y-35296D01*
X56453Y-35100D02*
X56846Y-35100D01*
X46441Y-34941D02*
X46441Y-34658D01*
X46158Y-34658D01*
X46158Y-34941D01*
X46441Y-34941D01*
X46641Y-36841D02*
X46641Y-36558D01*
X46358Y-36558D01*
X46358Y-36841D01*
X46641Y-36841D01*
X47541Y-36041D02*
X47541Y-35758D01*
X47258Y-35758D01*
X47258Y-36041D01*
X47541Y-36041D01*
X47541Y-38941D02*
X47541Y-38658D01*
X47258Y-38658D01*
X47258Y-38941D01*
X47541Y-38941D01*
X47541Y-42941D02*
X47541Y-42658D01*
X47258Y-42658D01*
X47258Y-42941D01*
X47541Y-42941D01*
X47541Y-46941D02*
X47541Y-46658D01*
X47258Y-46658D01*
X47258Y-46941D01*
X47541Y-46941D01*
X50541Y-36941D02*
X50541Y-36658D01*
X50258Y-36658D01*
X50258Y-36941D01*
X50541Y-36941D01*
X51441Y-45141D02*
X51441Y-44858D01*
X51158Y-44858D01*
X51158Y-45141D01*
X51441Y-45141D01*
X51441Y-50391D02*
X51441Y-50108D01*
X51158Y-50108D01*
X51158Y-50391D01*
X51441Y-50391D01*
X51491Y-42091D02*
X51491Y-41808D01*
X51208Y-41808D01*
X51208Y-42091D01*
X51491Y-42091D01*
X52741Y-39591D02*
X52741Y-39308D01*
X52458Y-39308D01*
X52458Y-39591D01*
X52741Y-39591D01*
X53291Y-45091D02*
X53291Y-44808D01*
X53008Y-44808D01*
X53008Y-45091D01*
X53291Y-45091D01*
X53291Y-50391D02*
X53291Y-50108D01*
X53008Y-50108D01*
X53008Y-50391D01*
X53291Y-50391D01*
X54241Y-39641D02*
X54241Y-39358D01*
X53958Y-39358D01*
X53958Y-39641D01*
X54241Y-39641D01*
X54291Y-45091D02*
X54291Y-44808D01*
X54008Y-44808D01*
X54008Y-45091D01*
X54291Y-45091D01*
X54291Y-50391D02*
X54291Y-50108D01*
X54008Y-50108D01*
X54008Y-50391D01*
X54291Y-50391D01*
X55741Y-50341D02*
X55741Y-50058D01*
X55458Y-50058D01*
X55458Y-50341D01*
X55741Y-50341D01*
X55791Y-39641D02*
X55791Y-39358D01*
X55508Y-39358D01*
X55508Y-39641D01*
X55791Y-39641D01*
X55791Y-45141D02*
X55791Y-44858D01*
X55508Y-44858D01*
X55508Y-45141D01*
X55791Y-45141D01*
G54D13*
X38448Y-58896D02*
X38448Y-57715D01*
X38730Y-57715D01*
X38898Y-57772D01*
X39011Y-57884D01*
X39067Y-57997D01*
X39123Y-58222D01*
X39123Y-58390D01*
X39067Y-58615D01*
X39011Y-58728D01*
X38898Y-58840D01*
X38730Y-58896D01*
X38448Y-58896D01*
X39630Y-58896D02*
X39630Y-58109D01*
X39630Y-58334D02*
X39686Y-58222D01*
X39742Y-58165D01*
X39855Y-58109D01*
X39967Y-58109D01*
X40361Y-58896D02*
X40361Y-58109D01*
X40361Y-57715D02*
X40304Y-57772D01*
X40361Y-57828D01*
X40417Y-57772D01*
X40361Y-57715D01*
X40361Y-57828D01*
X41092Y-58896D02*
X40979Y-58840D01*
X40923Y-58728D01*
X40923Y-57715D01*
X41711Y-58896D02*
X41598Y-58840D01*
X41542Y-58728D01*
X41542Y-57715D01*
X43060Y-58896D02*
X43060Y-57715D01*
X43454Y-58559D01*
X43848Y-57715D01*
X43848Y-58896D01*
X44916Y-58896D02*
X44916Y-58278D01*
X44860Y-58165D01*
X44748Y-58109D01*
X44523Y-58109D01*
X44410Y-58165D01*
X44916Y-58840D02*
X44804Y-58896D01*
X44523Y-58896D01*
X44410Y-58840D01*
X44354Y-58728D01*
X44354Y-58615D01*
X44410Y-58503D01*
X44523Y-58447D01*
X44804Y-58447D01*
X44916Y-58390D01*
X45479Y-58109D02*
X45479Y-59290D01*
X45479Y-58165D02*
X45591Y-58109D01*
X45816Y-58109D01*
X45929Y-58165D01*
X45985Y-58222D01*
X46041Y-58334D01*
X46041Y-58671D01*
X45985Y-58784D01*
X45929Y-58840D01*
X45816Y-58896D01*
X45591Y-58896D01*
X45479Y-58840D01*
X46547Y-58784D02*
X46604Y-58840D01*
X46547Y-58896D01*
X46491Y-58840D01*
X46547Y-58784D01*
X46547Y-58896D01*
X46547Y-58165D02*
X46604Y-58222D01*
X46547Y-58278D01*
X46491Y-58222D01*
X46547Y-58165D01*
X46547Y-58278D01*
X37065Y-60741D02*
X37380Y-61056D01*
X37380Y-60741D02*
X37065Y-61056D01*
X38673Y-60196D02*
X38786Y-60196D01*
X38898Y-60252D01*
X38955Y-60308D01*
X39011Y-60421D01*
X39067Y-60646D01*
X39067Y-60927D01*
X39011Y-61152D01*
X38955Y-61264D01*
X38898Y-61321D01*
X38786Y-61377D01*
X38673Y-61377D01*
X38561Y-61321D01*
X38505Y-61264D01*
X38448Y-61152D01*
X38392Y-60927D01*
X38392Y-60646D01*
X38448Y-60421D01*
X38505Y-60308D01*
X38561Y-60252D01*
X38673Y-60196D01*
X39573Y-61264D02*
X39630Y-61321D01*
X39573Y-61377D01*
X39517Y-61321D01*
X39573Y-61264D01*
X39573Y-61377D01*
X40304Y-60702D02*
X40192Y-60646D01*
X40136Y-60589D01*
X40079Y-60477D01*
X40079Y-60421D01*
X40136Y-60308D01*
X40192Y-60252D01*
X40304Y-60196D01*
X40529Y-60196D01*
X40642Y-60252D01*
X40698Y-60308D01*
X40754Y-60421D01*
X40754Y-60477D01*
X40698Y-60589D01*
X40642Y-60646D01*
X40529Y-60702D01*
X40304Y-60702D01*
X40192Y-60758D01*
X40136Y-60814D01*
X40079Y-60927D01*
X40079Y-61152D01*
X40136Y-61264D01*
X40192Y-61321D01*
X40304Y-61377D01*
X40529Y-61377D01*
X40642Y-61321D01*
X40698Y-61264D01*
X40754Y-61152D01*
X40754Y-60927D01*
X40698Y-60814D01*
X40642Y-60758D01*
X40529Y-60702D01*
X41486Y-60196D02*
X41598Y-60196D01*
X41711Y-60252D01*
X41767Y-60308D01*
X41823Y-60421D01*
X41879Y-60646D01*
X41879Y-60927D01*
X41823Y-61152D01*
X41767Y-61264D01*
X41711Y-61321D01*
X41598Y-61377D01*
X41486Y-61377D01*
X41373Y-61321D01*
X41317Y-61264D01*
X41261Y-61152D01*
X41204Y-60927D01*
X41204Y-60646D01*
X41261Y-60421D01*
X41317Y-60308D01*
X41373Y-60252D01*
X41486Y-60196D01*
X42385Y-61377D02*
X42385Y-60589D01*
X42385Y-60702D02*
X42442Y-60646D01*
X42554Y-60589D01*
X42723Y-60589D01*
X42835Y-60646D01*
X42892Y-60758D01*
X42892Y-61377D01*
X42892Y-60758D02*
X42948Y-60646D01*
X43060Y-60589D01*
X43229Y-60589D01*
X43342Y-60646D01*
X43398Y-60758D01*
X43398Y-61377D01*
X43960Y-61377D02*
X43960Y-60589D01*
X43960Y-60702D02*
X44016Y-60646D01*
X44129Y-60589D01*
X44298Y-60589D01*
X44410Y-60646D01*
X44466Y-60758D01*
X44466Y-61377D01*
X44466Y-60758D02*
X44523Y-60646D01*
X44635Y-60589D01*
X44804Y-60589D01*
X44916Y-60646D01*
X44973Y-60758D01*
X44973Y-61377D01*
X47279Y-60139D02*
X46266Y-61658D01*
X48797Y-60196D02*
X48910Y-60196D01*
X49022Y-60252D01*
X49078Y-60308D01*
X49135Y-60421D01*
X49191Y-60646D01*
X49191Y-60927D01*
X49135Y-61152D01*
X49078Y-61264D01*
X49022Y-61321D01*
X48910Y-61377D01*
X48797Y-61377D01*
X48685Y-61321D01*
X48628Y-61264D01*
X48572Y-61152D01*
X48516Y-60927D01*
X48516Y-60646D01*
X48572Y-60421D01*
X48628Y-60308D01*
X48685Y-60252D01*
X48797Y-60196D01*
X49697Y-61264D02*
X49753Y-61321D01*
X49697Y-61377D01*
X49641Y-61321D01*
X49697Y-61264D01*
X49697Y-61377D01*
X50484Y-60196D02*
X50597Y-60196D01*
X50709Y-60252D01*
X50766Y-60308D01*
X50822Y-60421D01*
X50878Y-60646D01*
X50878Y-60927D01*
X50822Y-61152D01*
X50766Y-61264D01*
X50709Y-61321D01*
X50597Y-61377D01*
X50484Y-61377D01*
X50372Y-61321D01*
X50316Y-61264D01*
X50259Y-61152D01*
X50203Y-60927D01*
X50203Y-60646D01*
X50259Y-60421D01*
X50316Y-60308D01*
X50372Y-60252D01*
X50484Y-60196D01*
X51272Y-60196D02*
X52003Y-60196D01*
X51609Y-60646D01*
X51778Y-60646D01*
X51891Y-60702D01*
X51947Y-60758D01*
X52003Y-60871D01*
X52003Y-61152D01*
X51947Y-61264D01*
X51891Y-61321D01*
X51778Y-61377D01*
X51441Y-61377D01*
X51328Y-61321D01*
X51272Y-61264D01*
X53128Y-61377D02*
X52453Y-61377D01*
X52790Y-61377D02*
X52790Y-60196D01*
X52678Y-60364D01*
X52565Y-60477D01*
X52453Y-60533D01*
X53578Y-60196D02*
X53578Y-60421D01*
X54028Y-60196D02*
X54028Y-60421D01*
X55771Y-61827D02*
X55715Y-61770D01*
X55603Y-61602D01*
X55546Y-61489D01*
X55490Y-61321D01*
X55434Y-61039D01*
X55434Y-60814D01*
X55490Y-60533D01*
X55546Y-60364D01*
X55603Y-60252D01*
X55715Y-60083D01*
X55771Y-60027D01*
X56840Y-61377D02*
X56165Y-61377D01*
X56502Y-61377D02*
X56502Y-60196D01*
X56390Y-60364D01*
X56277Y-60477D01*
X56165Y-60533D01*
X57290Y-60308D02*
X57346Y-60252D01*
X57459Y-60196D01*
X57740Y-60196D01*
X57852Y-60252D01*
X57908Y-60308D01*
X57965Y-60421D01*
X57965Y-60533D01*
X57908Y-60702D01*
X57234Y-61377D01*
X57965Y-61377D01*
X59371Y-61377D02*
X59371Y-60196D01*
X59877Y-61377D02*
X59877Y-60758D01*
X59821Y-60646D01*
X59708Y-60589D01*
X59540Y-60589D01*
X59427Y-60646D01*
X59371Y-60702D01*
X60608Y-61377D02*
X60496Y-61321D01*
X60439Y-61264D01*
X60383Y-61152D01*
X60383Y-60814D01*
X60439Y-60702D01*
X60496Y-60646D01*
X60608Y-60589D01*
X60777Y-60589D01*
X60889Y-60646D01*
X60946Y-60702D01*
X61002Y-60814D01*
X61002Y-61152D01*
X60946Y-61264D01*
X60889Y-61321D01*
X60777Y-61377D01*
X60608Y-61377D01*
X61677Y-61377D02*
X61564Y-61321D01*
X61508Y-61208D01*
X61508Y-60196D01*
X62577Y-61321D02*
X62464Y-61377D01*
X62239Y-61377D01*
X62127Y-61321D01*
X62070Y-61208D01*
X62070Y-60758D01*
X62127Y-60646D01*
X62239Y-60589D01*
X62464Y-60589D01*
X62577Y-60646D01*
X62633Y-60758D01*
X62633Y-60871D01*
X62070Y-60983D01*
X63083Y-61321D02*
X63195Y-61377D01*
X63420Y-61377D01*
X63533Y-61321D01*
X63589Y-61208D01*
X63589Y-61152D01*
X63533Y-61039D01*
X63420Y-60983D01*
X63252Y-60983D01*
X63139Y-60927D01*
X63083Y-60814D01*
X63083Y-60758D01*
X63139Y-60646D01*
X63252Y-60589D01*
X63420Y-60589D01*
X63533Y-60646D01*
X63983Y-61827D02*
X64039Y-61770D01*
X64151Y-61602D01*
X64208Y-61489D01*
X64264Y-61321D01*
X64320Y-61039D01*
X64320Y-60814D01*
X64264Y-60533D01*
X64208Y-60364D01*
X64151Y-60252D01*
X64039Y-60083D01*
X63983Y-60027D01*
G54D12*
X37380Y-62458D02*
G75*
G03X37380Y-62458I-160J0D01*
G74*
G01*
G54D13*
X38673Y-61755D02*
X38786Y-61755D01*
X38898Y-61811D01*
X38955Y-61867D01*
X39011Y-61980D01*
X39067Y-62205D01*
X39067Y-62486D01*
X39011Y-62711D01*
X38955Y-62823D01*
X38898Y-62880D01*
X38786Y-62936D01*
X38673Y-62936D01*
X38561Y-62880D01*
X38505Y-62823D01*
X38448Y-62711D01*
X38392Y-62486D01*
X38392Y-62205D01*
X38448Y-61980D01*
X38505Y-61867D01*
X38561Y-61811D01*
X38673Y-61755D01*
X39573Y-62823D02*
X39630Y-62880D01*
X39573Y-62936D01*
X39517Y-62880D01*
X39573Y-62823D01*
X39573Y-62936D01*
X40304Y-62261D02*
X40192Y-62205D01*
X40136Y-62148D01*
X40079Y-62036D01*
X40079Y-61980D01*
X40136Y-61867D01*
X40192Y-61811D01*
X40304Y-61755D01*
X40529Y-61755D01*
X40642Y-61811D01*
X40698Y-61867D01*
X40754Y-61980D01*
X40754Y-62036D01*
X40698Y-62148D01*
X40642Y-62205D01*
X40529Y-62261D01*
X40304Y-62261D01*
X40192Y-62317D01*
X40136Y-62373D01*
X40079Y-62486D01*
X40079Y-62711D01*
X40136Y-62823D01*
X40192Y-62880D01*
X40304Y-62936D01*
X40529Y-62936D01*
X40642Y-62880D01*
X40698Y-62823D01*
X40754Y-62711D01*
X40754Y-62486D01*
X40698Y-62373D01*
X40642Y-62317D01*
X40529Y-62261D01*
X41879Y-62936D02*
X41204Y-62936D01*
X41542Y-62936D02*
X41542Y-61755D01*
X41429Y-61923D01*
X41317Y-62036D01*
X41204Y-62092D01*
X42385Y-62936D02*
X42385Y-62148D01*
X42385Y-62261D02*
X42442Y-62205D01*
X42554Y-62148D01*
X42723Y-62148D01*
X42835Y-62205D01*
X42892Y-62317D01*
X42892Y-62936D01*
X42892Y-62317D02*
X42948Y-62205D01*
X43060Y-62148D01*
X43229Y-62148D01*
X43342Y-62205D01*
X43398Y-62317D01*
X43398Y-62936D01*
X43960Y-62936D02*
X43960Y-62148D01*
X43960Y-62261D02*
X44016Y-62205D01*
X44129Y-62148D01*
X44298Y-62148D01*
X44410Y-62205D01*
X44466Y-62317D01*
X44466Y-62936D01*
X44466Y-62317D02*
X44523Y-62205D01*
X44635Y-62148D01*
X44804Y-62148D01*
X44916Y-62205D01*
X44973Y-62317D01*
X44973Y-62936D01*
X47279Y-61698D02*
X46266Y-63217D01*
X48797Y-61755D02*
X48910Y-61755D01*
X49022Y-61811D01*
X49078Y-61867D01*
X49135Y-61980D01*
X49191Y-62205D01*
X49191Y-62486D01*
X49135Y-62711D01*
X49078Y-62823D01*
X49022Y-62880D01*
X48910Y-62936D01*
X48797Y-62936D01*
X48685Y-62880D01*
X48628Y-62823D01*
X48572Y-62711D01*
X48516Y-62486D01*
X48516Y-62205D01*
X48572Y-61980D01*
X48628Y-61867D01*
X48685Y-61811D01*
X48797Y-61755D01*
X49697Y-62823D02*
X49753Y-62880D01*
X49697Y-62936D01*
X49641Y-62880D01*
X49697Y-62823D01*
X49697Y-62936D01*
X50484Y-61755D02*
X50597Y-61755D01*
X50709Y-61811D01*
X50766Y-61867D01*
X50822Y-61980D01*
X50878Y-62205D01*
X50878Y-62486D01*
X50822Y-62711D01*
X50766Y-62823D01*
X50709Y-62880D01*
X50597Y-62936D01*
X50484Y-62936D01*
X50372Y-62880D01*
X50316Y-62823D01*
X50259Y-62711D01*
X50203Y-62486D01*
X50203Y-62205D01*
X50259Y-61980D01*
X50316Y-61867D01*
X50372Y-61811D01*
X50484Y-61755D01*
X51272Y-61755D02*
X52003Y-61755D01*
X51609Y-62205D01*
X51778Y-62205D01*
X51891Y-62261D01*
X51947Y-62317D01*
X52003Y-62430D01*
X52003Y-62711D01*
X51947Y-62823D01*
X51891Y-62880D01*
X51778Y-62936D01*
X51441Y-62936D01*
X51328Y-62880D01*
X51272Y-62823D01*
X52453Y-61867D02*
X52509Y-61811D01*
X52622Y-61755D01*
X52903Y-61755D01*
X53015Y-61811D01*
X53072Y-61867D01*
X53128Y-61980D01*
X53128Y-62092D01*
X53072Y-62261D01*
X52397Y-62936D01*
X53128Y-62936D01*
X53578Y-61755D02*
X53578Y-61980D01*
X54028Y-61755D02*
X54028Y-61980D01*
X55771Y-63386D02*
X55715Y-63330D01*
X55603Y-63161D01*
X55546Y-63048D01*
X55490Y-62880D01*
X55434Y-62598D01*
X55434Y-62373D01*
X55490Y-62092D01*
X55546Y-61923D01*
X55603Y-61811D01*
X55715Y-61642D01*
X55771Y-61586D01*
X56840Y-62936D02*
X56165Y-62936D01*
X56502Y-62936D02*
X56502Y-61755D01*
X56390Y-61923D01*
X56277Y-62036D01*
X56165Y-62092D01*
X57571Y-61755D02*
X57684Y-61755D01*
X57796Y-61811D01*
X57852Y-61867D01*
X57908Y-61980D01*
X57965Y-62205D01*
X57965Y-62486D01*
X57908Y-62711D01*
X57852Y-62823D01*
X57796Y-62880D01*
X57684Y-62936D01*
X57571Y-62936D01*
X57459Y-62880D01*
X57402Y-62823D01*
X57346Y-62711D01*
X57290Y-62486D01*
X57290Y-62205D01*
X57346Y-61980D01*
X57402Y-61867D01*
X57459Y-61811D01*
X57571Y-61755D01*
X59371Y-62936D02*
X59371Y-61755D01*
X59877Y-62936D02*
X59877Y-62317D01*
X59821Y-62205D01*
X59708Y-62148D01*
X59540Y-62148D01*
X59427Y-62205D01*
X59371Y-62261D01*
X60608Y-62936D02*
X60496Y-62880D01*
X60439Y-62823D01*
X60383Y-62711D01*
X60383Y-62373D01*
X60439Y-62261D01*
X60496Y-62205D01*
X60608Y-62148D01*
X60777Y-62148D01*
X60889Y-62205D01*
X60946Y-62261D01*
X61002Y-62373D01*
X61002Y-62711D01*
X60946Y-62823D01*
X60889Y-62880D01*
X60777Y-62936D01*
X60608Y-62936D01*
X61677Y-62936D02*
X61564Y-62880D01*
X61508Y-62767D01*
X61508Y-61755D01*
X62577Y-62880D02*
X62464Y-62936D01*
X62239Y-62936D01*
X62127Y-62880D01*
X62070Y-62767D01*
X62070Y-62317D01*
X62127Y-62205D01*
X62239Y-62148D01*
X62464Y-62148D01*
X62577Y-62205D01*
X62633Y-62317D01*
X62633Y-62430D01*
X62070Y-62542D01*
X63083Y-62880D02*
X63195Y-62936D01*
X63420Y-62936D01*
X63533Y-62880D01*
X63589Y-62767D01*
X63589Y-62711D01*
X63533Y-62598D01*
X63420Y-62542D01*
X63252Y-62542D01*
X63139Y-62486D01*
X63083Y-62373D01*
X63083Y-62317D01*
X63139Y-62205D01*
X63252Y-62148D01*
X63420Y-62148D01*
X63533Y-62205D01*
X63983Y-63386D02*
X64039Y-63330D01*
X64151Y-63161D01*
X64208Y-63048D01*
X64264Y-62880D01*
X64320Y-62598D01*
X64320Y-62373D01*
X64264Y-62092D01*
X64208Y-61923D01*
X64151Y-61811D01*
X64039Y-61642D01*
X63983Y-61586D01*
X37183Y-63820D02*
X37183Y-64214D01*
X36986Y-64017D02*
X37380Y-64017D01*
X39067Y-64495D02*
X38392Y-64495D01*
X38730Y-64495D02*
X38730Y-63314D01*
X38617Y-63483D01*
X38505Y-63595D01*
X38392Y-63651D01*
X39573Y-64382D02*
X39630Y-64439D01*
X39573Y-64495D01*
X39517Y-64439D01*
X39573Y-64382D01*
X39573Y-64495D01*
X40361Y-63314D02*
X40473Y-63314D01*
X40586Y-63370D01*
X40642Y-63426D01*
X40698Y-63539D01*
X40754Y-63764D01*
X40754Y-64045D01*
X40698Y-64270D01*
X40642Y-64382D01*
X40586Y-64439D01*
X40473Y-64495D01*
X40361Y-64495D01*
X40248Y-64439D01*
X40192Y-64382D01*
X40136Y-64270D01*
X40079Y-64045D01*
X40079Y-63764D01*
X40136Y-63539D01*
X40192Y-63426D01*
X40248Y-63370D01*
X40361Y-63314D01*
X41486Y-63314D02*
X41598Y-63314D01*
X41711Y-63370D01*
X41767Y-63426D01*
X41823Y-63539D01*
X41879Y-63764D01*
X41879Y-64045D01*
X41823Y-64270D01*
X41767Y-64382D01*
X41711Y-64439D01*
X41598Y-64495D01*
X41486Y-64495D01*
X41373Y-64439D01*
X41317Y-64382D01*
X41261Y-64270D01*
X41204Y-64045D01*
X41204Y-63764D01*
X41261Y-63539D01*
X41317Y-63426D01*
X41373Y-63370D01*
X41486Y-63314D01*
X42385Y-64495D02*
X42385Y-63707D01*
X42385Y-63820D02*
X42442Y-63764D01*
X42554Y-63707D01*
X42723Y-63707D01*
X42835Y-63764D01*
X42892Y-63876D01*
X42892Y-64495D01*
X42892Y-63876D02*
X42948Y-63764D01*
X43060Y-63707D01*
X43229Y-63707D01*
X43342Y-63764D01*
X43398Y-63876D01*
X43398Y-64495D01*
X43960Y-64495D02*
X43960Y-63707D01*
X43960Y-63820D02*
X44016Y-63764D01*
X44129Y-63707D01*
X44298Y-63707D01*
X44410Y-63764D01*
X44466Y-63876D01*
X44466Y-64495D01*
X44466Y-63876D02*
X44523Y-63764D01*
X44635Y-63707D01*
X44804Y-63707D01*
X44916Y-63764D01*
X44973Y-63876D01*
X44973Y-64495D01*
X47279Y-63258D02*
X46266Y-64776D01*
X48797Y-63314D02*
X48910Y-63314D01*
X49022Y-63370D01*
X49078Y-63426D01*
X49135Y-63539D01*
X49191Y-63764D01*
X49191Y-64045D01*
X49135Y-64270D01*
X49078Y-64382D01*
X49022Y-64439D01*
X48910Y-64495D01*
X48797Y-64495D01*
X48685Y-64439D01*
X48628Y-64382D01*
X48572Y-64270D01*
X48516Y-64045D01*
X48516Y-63764D01*
X48572Y-63539D01*
X48628Y-63426D01*
X48685Y-63370D01*
X48797Y-63314D01*
X49697Y-64382D02*
X49753Y-64439D01*
X49697Y-64495D01*
X49641Y-64439D01*
X49697Y-64382D01*
X49697Y-64495D01*
X50484Y-63314D02*
X50597Y-63314D01*
X50709Y-63370D01*
X50766Y-63426D01*
X50822Y-63539D01*
X50878Y-63764D01*
X50878Y-64045D01*
X50822Y-64270D01*
X50766Y-64382D01*
X50709Y-64439D01*
X50597Y-64495D01*
X50484Y-64495D01*
X50372Y-64439D01*
X50316Y-64382D01*
X50259Y-64270D01*
X50203Y-64045D01*
X50203Y-63764D01*
X50259Y-63539D01*
X50316Y-63426D01*
X50372Y-63370D01*
X50484Y-63314D01*
X51272Y-63314D02*
X52003Y-63314D01*
X51609Y-63764D01*
X51778Y-63764D01*
X51891Y-63820D01*
X51947Y-63876D01*
X52003Y-63989D01*
X52003Y-64270D01*
X51947Y-64382D01*
X51891Y-64439D01*
X51778Y-64495D01*
X51441Y-64495D01*
X51328Y-64439D01*
X51272Y-64382D01*
X52565Y-64495D02*
X52790Y-64495D01*
X52903Y-64439D01*
X52959Y-64382D01*
X53072Y-64214D01*
X53128Y-63989D01*
X53128Y-63539D01*
X53072Y-63426D01*
X53015Y-63370D01*
X52903Y-63314D01*
X52678Y-63314D01*
X52565Y-63370D01*
X52509Y-63426D01*
X52453Y-63539D01*
X52453Y-63820D01*
X52509Y-63932D01*
X52565Y-63989D01*
X52678Y-64045D01*
X52903Y-64045D01*
X53015Y-63989D01*
X53072Y-63932D01*
X53128Y-63820D01*
X53578Y-63314D02*
X53578Y-63539D01*
X54028Y-63314D02*
X54028Y-63539D01*
X55771Y-64945D02*
X55715Y-64889D01*
X55603Y-64720D01*
X55546Y-64607D01*
X55490Y-64439D01*
X55434Y-64157D01*
X55434Y-63932D01*
X55490Y-63651D01*
X55546Y-63483D01*
X55603Y-63370D01*
X55715Y-63201D01*
X55771Y-63145D01*
X56784Y-63314D02*
X56221Y-63314D01*
X56165Y-63876D01*
X56221Y-63820D01*
X56334Y-63764D01*
X56615Y-63764D01*
X56727Y-63820D01*
X56784Y-63876D01*
X56840Y-63989D01*
X56840Y-64270D01*
X56784Y-64382D01*
X56727Y-64439D01*
X56615Y-64495D01*
X56334Y-64495D01*
X56221Y-64439D01*
X56165Y-64382D01*
X57965Y-64495D02*
X57290Y-64495D01*
X57627Y-64495D02*
X57627Y-63314D01*
X57515Y-63483D01*
X57402Y-63595D01*
X57290Y-63651D01*
X59371Y-64495D02*
X59371Y-63314D01*
X59877Y-64495D02*
X59877Y-63876D01*
X59821Y-63764D01*
X59708Y-63707D01*
X59540Y-63707D01*
X59427Y-63764D01*
X59371Y-63820D01*
X60608Y-64495D02*
X60496Y-64439D01*
X60439Y-64382D01*
X60383Y-64270D01*
X60383Y-63932D01*
X60439Y-63820D01*
X60496Y-63764D01*
X60608Y-63707D01*
X60777Y-63707D01*
X60889Y-63764D01*
X60946Y-63820D01*
X61002Y-63932D01*
X61002Y-64270D01*
X60946Y-64382D01*
X60889Y-64439D01*
X60777Y-64495D01*
X60608Y-64495D01*
X61677Y-64495D02*
X61564Y-64439D01*
X61508Y-64326D01*
X61508Y-63314D01*
X62577Y-64439D02*
X62464Y-64495D01*
X62239Y-64495D01*
X62127Y-64439D01*
X62070Y-64326D01*
X62070Y-63876D01*
X62127Y-63764D01*
X62239Y-63707D01*
X62464Y-63707D01*
X62577Y-63764D01*
X62633Y-63876D01*
X62633Y-63989D01*
X62070Y-64101D01*
X63083Y-64439D02*
X63195Y-64495D01*
X63420Y-64495D01*
X63533Y-64439D01*
X63589Y-64326D01*
X63589Y-64270D01*
X63533Y-64157D01*
X63420Y-64101D01*
X63252Y-64101D01*
X63139Y-64045D01*
X63083Y-63932D01*
X63083Y-63876D01*
X63139Y-63764D01*
X63252Y-63707D01*
X63420Y-63707D01*
X63533Y-63764D01*
X63983Y-64945D02*
X64039Y-64889D01*
X64151Y-64720D01*
X64208Y-64607D01*
X64264Y-64439D01*
X64320Y-64157D01*
X64320Y-63932D01*
X64264Y-63651D01*
X64208Y-63483D01*
X64151Y-63370D01*
X64039Y-63201D01*
X63983Y-63145D01*
G54D12*
X37321Y-65717D02*
X37321Y-65434D01*
X37038Y-65434D01*
X37038Y-65717D01*
X37321Y-65717D01*
G54D13*
X39067Y-66054D02*
X38392Y-66054D01*
X38730Y-66054D02*
X38730Y-64873D01*
X38617Y-65042D01*
X38505Y-65154D01*
X38392Y-65210D01*
X39573Y-65941D02*
X39630Y-65998D01*
X39573Y-66054D01*
X39517Y-65998D01*
X39573Y-65941D01*
X39573Y-66054D01*
X40361Y-64873D02*
X40473Y-64873D01*
X40586Y-64929D01*
X40642Y-64985D01*
X40698Y-65098D01*
X40754Y-65323D01*
X40754Y-65604D01*
X40698Y-65829D01*
X40642Y-65941D01*
X40586Y-65998D01*
X40473Y-66054D01*
X40361Y-66054D01*
X40248Y-65998D01*
X40192Y-65941D01*
X40136Y-65829D01*
X40079Y-65604D01*
X40079Y-65323D01*
X40136Y-65098D01*
X40192Y-64985D01*
X40248Y-64929D01*
X40361Y-64873D01*
X41204Y-64985D02*
X41261Y-64929D01*
X41373Y-64873D01*
X41654Y-64873D01*
X41767Y-64929D01*
X41823Y-64985D01*
X41879Y-65098D01*
X41879Y-65210D01*
X41823Y-65379D01*
X41148Y-66054D01*
X41879Y-66054D01*
X42385Y-66054D02*
X42385Y-65267D01*
X42385Y-65379D02*
X42442Y-65323D01*
X42554Y-65267D01*
X42723Y-65267D01*
X42835Y-65323D01*
X42892Y-65435D01*
X42892Y-66054D01*
X42892Y-65435D02*
X42948Y-65323D01*
X43060Y-65267D01*
X43229Y-65267D01*
X43342Y-65323D01*
X43398Y-65435D01*
X43398Y-66054D01*
X43960Y-66054D02*
X43960Y-65267D01*
X43960Y-65379D02*
X44016Y-65323D01*
X44129Y-65267D01*
X44298Y-65267D01*
X44410Y-65323D01*
X44466Y-65435D01*
X44466Y-66054D01*
X44466Y-65435D02*
X44523Y-65323D01*
X44635Y-65267D01*
X44804Y-65267D01*
X44916Y-65323D01*
X44973Y-65435D01*
X44973Y-66054D01*
X47279Y-64817D02*
X46266Y-66335D01*
X48797Y-64873D02*
X48910Y-64873D01*
X49022Y-64929D01*
X49078Y-64985D01*
X49135Y-65098D01*
X49191Y-65323D01*
X49191Y-65604D01*
X49135Y-65829D01*
X49078Y-65941D01*
X49022Y-65998D01*
X48910Y-66054D01*
X48797Y-66054D01*
X48685Y-65998D01*
X48628Y-65941D01*
X48572Y-65829D01*
X48516Y-65604D01*
X48516Y-65323D01*
X48572Y-65098D01*
X48628Y-64985D01*
X48685Y-64929D01*
X48797Y-64873D01*
X49697Y-65941D02*
X49753Y-65998D01*
X49697Y-66054D01*
X49641Y-65998D01*
X49697Y-65941D01*
X49697Y-66054D01*
X50484Y-64873D02*
X50597Y-64873D01*
X50709Y-64929D01*
X50766Y-64985D01*
X50822Y-65098D01*
X50878Y-65323D01*
X50878Y-65604D01*
X50822Y-65829D01*
X50766Y-65941D01*
X50709Y-65998D01*
X50597Y-66054D01*
X50484Y-66054D01*
X50372Y-65998D01*
X50316Y-65941D01*
X50259Y-65829D01*
X50203Y-65604D01*
X50203Y-65323D01*
X50259Y-65098D01*
X50316Y-64985D01*
X50372Y-64929D01*
X50484Y-64873D01*
X51891Y-65267D02*
X51891Y-66054D01*
X51609Y-64817D02*
X51328Y-65660D01*
X52059Y-65660D01*
X52734Y-64873D02*
X52847Y-64873D01*
X52959Y-64929D01*
X53015Y-64985D01*
X53072Y-65098D01*
X53128Y-65323D01*
X53128Y-65604D01*
X53072Y-65829D01*
X53015Y-65941D01*
X52959Y-65998D01*
X52847Y-66054D01*
X52734Y-66054D01*
X52622Y-65998D01*
X52565Y-65941D01*
X52509Y-65829D01*
X52453Y-65604D01*
X52453Y-65323D01*
X52509Y-65098D01*
X52565Y-64985D01*
X52622Y-64929D01*
X52734Y-64873D01*
X53578Y-64873D02*
X53578Y-65098D01*
X54028Y-64873D02*
X54028Y-65098D01*
X55771Y-66504D02*
X55715Y-66448D01*
X55603Y-66279D01*
X55546Y-66166D01*
X55490Y-65998D01*
X55434Y-65716D01*
X55434Y-65492D01*
X55490Y-65210D01*
X55546Y-65042D01*
X55603Y-64929D01*
X55715Y-64760D01*
X55771Y-64704D01*
X56840Y-66054D02*
X56165Y-66054D01*
X56502Y-66054D02*
X56502Y-64873D01*
X56390Y-65042D01*
X56277Y-65154D01*
X56165Y-65210D01*
X57402Y-66054D02*
X57627Y-66054D01*
X57740Y-65998D01*
X57796Y-65941D01*
X57908Y-65773D01*
X57965Y-65548D01*
X57965Y-65098D01*
X57908Y-64985D01*
X57852Y-64929D01*
X57740Y-64873D01*
X57515Y-64873D01*
X57402Y-64929D01*
X57346Y-64985D01*
X57290Y-65098D01*
X57290Y-65379D01*
X57346Y-65492D01*
X57402Y-65548D01*
X57515Y-65604D01*
X57740Y-65604D01*
X57852Y-65548D01*
X57908Y-65492D01*
X57965Y-65379D01*
X59371Y-66054D02*
X59371Y-64873D01*
X59877Y-66054D02*
X59877Y-65435D01*
X59821Y-65323D01*
X59708Y-65267D01*
X59540Y-65267D01*
X59427Y-65323D01*
X59371Y-65379D01*
X60608Y-66054D02*
X60496Y-65998D01*
X60439Y-65941D01*
X60383Y-65829D01*
X60383Y-65492D01*
X60439Y-65379D01*
X60496Y-65323D01*
X60608Y-65267D01*
X60777Y-65267D01*
X60889Y-65323D01*
X60946Y-65379D01*
X61002Y-65492D01*
X61002Y-65829D01*
X60946Y-65941D01*
X60889Y-65998D01*
X60777Y-66054D01*
X60608Y-66054D01*
X61677Y-66054D02*
X61564Y-65998D01*
X61508Y-65885D01*
X61508Y-64873D01*
X62577Y-65998D02*
X62464Y-66054D01*
X62239Y-66054D01*
X62127Y-65998D01*
X62070Y-65885D01*
X62070Y-65435D01*
X62127Y-65323D01*
X62239Y-65267D01*
X62464Y-65267D01*
X62577Y-65323D01*
X62633Y-65435D01*
X62633Y-65548D01*
X62070Y-65660D01*
X63083Y-65998D02*
X63195Y-66054D01*
X63420Y-66054D01*
X63533Y-65998D01*
X63589Y-65885D01*
X63589Y-65829D01*
X63533Y-65716D01*
X63420Y-65660D01*
X63252Y-65660D01*
X63139Y-65604D01*
X63083Y-65492D01*
X63083Y-65435D01*
X63139Y-65323D01*
X63252Y-65267D01*
X63420Y-65267D01*
X63533Y-65323D01*
X63983Y-66504D02*
X64039Y-66448D01*
X64151Y-66279D01*
X64208Y-66166D01*
X64264Y-65998D01*
X64320Y-65716D01*
X64320Y-65492D01*
X64264Y-65210D01*
X64208Y-65042D01*
X64151Y-64929D01*
X64039Y-64760D01*
X63983Y-64704D01*
M02*
