M48
;DRILL file {Pcbnew (2013-june-11)-stable} date Mon 12 Oct 2015 07:48:48 PM CEST
;FORMAT={-:-/ absolute / metric / decimal}
FMAT,2
METRIC,TZ
T1C0.800
T2C0.813
T3C1.000
T4C1.016
%
G90
G05
M71
T1
X135.001Y-105.664
X135.001Y-108.204
X135.001Y-118.999
X135.001Y-121.539
X135.001Y-132.334
X135.001Y-134.874
X137.541Y-106.934
X137.541Y-109.474
X137.541Y-120.269
X137.541Y-122.809
X137.541Y-133.604
X137.541Y-136.144
T2
X130.556Y-88.519
X130.556Y-98.679
X133.604Y-86.614
X133.604Y-96.774
X136.906Y-88.519
X136.906Y-96.139
X140.081Y-88.519
X140.081Y-96.139
X143.891Y-92.964
X143.891Y-98.044
T3
X114.046Y-92.329
X114.046Y-94.869
X114.046Y-97.409
X114.046Y-99.949
X114.046Y-110.109
X114.046Y-112.649
X114.046Y-115.189
X114.046Y-117.729
X114.046Y-120.269
X122.936Y-88.519
X122.936Y-91.059
X122.936Y-93.599
X122.936Y-96.139
X122.936Y-98.679
X122.936Y-101.219
X122.936Y-103.759
X122.936Y-106.299
X122.936Y-108.839
X122.936Y-111.379
X122.936Y-113.919
X122.936Y-116.459
X122.936Y-118.999
X122.936Y-121.539
X122.936Y-124.079
X122.936Y-126.619
X122.936Y-129.159
X122.936Y-131.699
X122.936Y-134.239
X122.936Y-136.779
X125.476Y-88.519
X125.476Y-91.059
X125.476Y-93.599
X125.476Y-96.139
X125.476Y-98.679
X125.476Y-101.219
X125.476Y-103.759
X125.476Y-106.299
X125.476Y-108.839
X125.476Y-111.379
X125.476Y-113.919
X125.476Y-116.459
X125.476Y-118.999
X125.476Y-121.539
X125.476Y-124.079
X125.476Y-126.619
X125.476Y-129.159
X125.476Y-131.699
X125.476Y-134.239
X125.476Y-136.779
X143.891Y-86.614
X143.891Y-89.154
T4
X117.602Y-88.392
X118.11Y-93.218
X120.396Y-91.186
X120.396Y-98.552
X120.396Y-108.712
X120.396Y-118.872
X128.016Y-93.472
X130.302Y-114.3
X130.302Y-127.635
X130.429Y-106.553
X133.604Y-100.203
X135.001Y-114.173
X135.001Y-127.635
X137.414Y-100.33
X137.541Y-114.173
X137.541Y-127.635
X141.224Y-127.508
X141.351Y-100.33
X141.351Y-114.3
T0
M30
