G04 (created by PCBNEW (2013-june-11)-stable) date Mon 12 Oct 2015 07:54:12 PM CEST*
%MOIN*%
G04 Gerber Fmt 3.4, Leading zero omitted, Abs format*
%FSLAX34Y34*%
G01*
G70*
G90*
G04 APERTURE LIST*
%ADD10C,0.005*%
%ADD11C,0.00393701*%
%ADD12C,0.00787402*%
%ADD13C,0.011811*%
G04 APERTURE END LIST*
G54D10*
G54D11*
X37400Y-57100D02*
X37400Y-31600D01*
X60400Y-57100D02*
X37400Y-57100D01*
X60400Y-31600D02*
X60400Y-57100D01*
X37400Y-31600D02*
X60400Y-31600D01*
G54D12*
X56059Y-40086D02*
X57437Y-41464D01*
X57437Y-40086D02*
X56059Y-41464D01*
X56059Y-43235D02*
X57437Y-44613D01*
X57437Y-43235D02*
X56059Y-44613D01*
X56059Y-45336D02*
X57437Y-46714D01*
X57437Y-45336D02*
X56059Y-46714D01*
X56059Y-48485D02*
X57437Y-49863D01*
X57437Y-48485D02*
X56059Y-49863D01*
X56059Y-50586D02*
X57437Y-51964D01*
X57437Y-50586D02*
X56059Y-51964D01*
X56059Y-53735D02*
X57437Y-55113D01*
X57437Y-53735D02*
X56059Y-55113D01*
G54D13*
X38448Y-58896D02*
X38448Y-57715D01*
X38730Y-57715D01*
X38898Y-57772D01*
X39011Y-57884D01*
X39067Y-57997D01*
X39123Y-58222D01*
X39123Y-58390D01*
X39067Y-58615D01*
X39011Y-58728D01*
X38898Y-58840D01*
X38730Y-58896D01*
X38448Y-58896D01*
X39630Y-58896D02*
X39630Y-58109D01*
X39630Y-58334D02*
X39686Y-58222D01*
X39742Y-58165D01*
X39855Y-58109D01*
X39967Y-58109D01*
X40361Y-58896D02*
X40361Y-58109D01*
X40361Y-57715D02*
X40304Y-57772D01*
X40361Y-57828D01*
X40417Y-57772D01*
X40361Y-57715D01*
X40361Y-57828D01*
X41092Y-58896D02*
X40979Y-58840D01*
X40923Y-58728D01*
X40923Y-57715D01*
X41711Y-58896D02*
X41598Y-58840D01*
X41542Y-58728D01*
X41542Y-57715D01*
X43060Y-58896D02*
X43060Y-57715D01*
X43454Y-58559D01*
X43848Y-57715D01*
X43848Y-58896D01*
X44916Y-58896D02*
X44916Y-58278D01*
X44860Y-58165D01*
X44748Y-58109D01*
X44523Y-58109D01*
X44410Y-58165D01*
X44916Y-58840D02*
X44804Y-58896D01*
X44523Y-58896D01*
X44410Y-58840D01*
X44354Y-58728D01*
X44354Y-58615D01*
X44410Y-58503D01*
X44523Y-58447D01*
X44804Y-58447D01*
X44916Y-58390D01*
X45479Y-58109D02*
X45479Y-59290D01*
X45479Y-58165D02*
X45591Y-58109D01*
X45816Y-58109D01*
X45929Y-58165D01*
X45985Y-58222D01*
X46041Y-58334D01*
X46041Y-58671D01*
X45985Y-58784D01*
X45929Y-58840D01*
X45816Y-58896D01*
X45591Y-58896D01*
X45479Y-58840D01*
X46547Y-58784D02*
X46604Y-58840D01*
X46547Y-58896D01*
X46491Y-58840D01*
X46547Y-58784D01*
X46547Y-58896D01*
X46547Y-58165D02*
X46604Y-58222D01*
X46547Y-58278D01*
X46491Y-58222D01*
X46547Y-58165D01*
X46547Y-58278D01*
X36002Y-60210D02*
X37380Y-61588D01*
X37380Y-60210D02*
X36002Y-61588D01*
X38336Y-60196D02*
X39067Y-60196D01*
X38673Y-60646D01*
X38842Y-60646D01*
X38955Y-60702D01*
X39011Y-60758D01*
X39067Y-60871D01*
X39067Y-61152D01*
X39011Y-61264D01*
X38955Y-61321D01*
X38842Y-61377D01*
X38505Y-61377D01*
X38392Y-61321D01*
X38336Y-61264D01*
X39573Y-61264D02*
X39630Y-61321D01*
X39573Y-61377D01*
X39517Y-61321D01*
X39573Y-61264D01*
X39573Y-61377D01*
X40698Y-60196D02*
X40136Y-60196D01*
X40079Y-60758D01*
X40136Y-60702D01*
X40248Y-60646D01*
X40529Y-60646D01*
X40642Y-60702D01*
X40698Y-60758D01*
X40754Y-60871D01*
X40754Y-61152D01*
X40698Y-61264D01*
X40642Y-61321D01*
X40529Y-61377D01*
X40248Y-61377D01*
X40136Y-61321D01*
X40079Y-61264D01*
X41486Y-60196D02*
X41598Y-60196D01*
X41711Y-60252D01*
X41767Y-60308D01*
X41823Y-60421D01*
X41879Y-60646D01*
X41879Y-60927D01*
X41823Y-61152D01*
X41767Y-61264D01*
X41711Y-61321D01*
X41598Y-61377D01*
X41486Y-61377D01*
X41373Y-61321D01*
X41317Y-61264D01*
X41261Y-61152D01*
X41204Y-60927D01*
X41204Y-60646D01*
X41261Y-60421D01*
X41317Y-60308D01*
X41373Y-60252D01*
X41486Y-60196D01*
X42385Y-61377D02*
X42385Y-60589D01*
X42385Y-60702D02*
X42442Y-60646D01*
X42554Y-60589D01*
X42723Y-60589D01*
X42835Y-60646D01*
X42892Y-60758D01*
X42892Y-61377D01*
X42892Y-60758D02*
X42948Y-60646D01*
X43060Y-60589D01*
X43229Y-60589D01*
X43342Y-60646D01*
X43398Y-60758D01*
X43398Y-61377D01*
X43960Y-61377D02*
X43960Y-60589D01*
X43960Y-60702D02*
X44016Y-60646D01*
X44129Y-60589D01*
X44298Y-60589D01*
X44410Y-60646D01*
X44466Y-60758D01*
X44466Y-61377D01*
X44466Y-60758D02*
X44523Y-60646D01*
X44635Y-60589D01*
X44804Y-60589D01*
X44916Y-60646D01*
X44973Y-60758D01*
X44973Y-61377D01*
X47279Y-60139D02*
X46266Y-61658D01*
X48797Y-60196D02*
X48910Y-60196D01*
X49022Y-60252D01*
X49078Y-60308D01*
X49135Y-60421D01*
X49191Y-60646D01*
X49191Y-60927D01*
X49135Y-61152D01*
X49078Y-61264D01*
X49022Y-61321D01*
X48910Y-61377D01*
X48797Y-61377D01*
X48685Y-61321D01*
X48628Y-61264D01*
X48572Y-61152D01*
X48516Y-60927D01*
X48516Y-60646D01*
X48572Y-60421D01*
X48628Y-60308D01*
X48685Y-60252D01*
X48797Y-60196D01*
X49697Y-61264D02*
X49753Y-61321D01*
X49697Y-61377D01*
X49641Y-61321D01*
X49697Y-61264D01*
X49697Y-61377D01*
X50878Y-61377D02*
X50203Y-61377D01*
X50541Y-61377D02*
X50541Y-60196D01*
X50428Y-60364D01*
X50316Y-60477D01*
X50203Y-60533D01*
X51272Y-60196D02*
X52003Y-60196D01*
X51609Y-60646D01*
X51778Y-60646D01*
X51891Y-60702D01*
X51947Y-60758D01*
X52003Y-60871D01*
X52003Y-61152D01*
X51947Y-61264D01*
X51891Y-61321D01*
X51778Y-61377D01*
X51441Y-61377D01*
X51328Y-61321D01*
X51272Y-61264D01*
X52678Y-60702D02*
X52565Y-60646D01*
X52509Y-60589D01*
X52453Y-60477D01*
X52453Y-60421D01*
X52509Y-60308D01*
X52565Y-60252D01*
X52678Y-60196D01*
X52903Y-60196D01*
X53015Y-60252D01*
X53072Y-60308D01*
X53128Y-60421D01*
X53128Y-60477D01*
X53072Y-60589D01*
X53015Y-60646D01*
X52903Y-60702D01*
X52678Y-60702D01*
X52565Y-60758D01*
X52509Y-60814D01*
X52453Y-60927D01*
X52453Y-61152D01*
X52509Y-61264D01*
X52565Y-61321D01*
X52678Y-61377D01*
X52903Y-61377D01*
X53015Y-61321D01*
X53072Y-61264D01*
X53128Y-61152D01*
X53128Y-60927D01*
X53072Y-60814D01*
X53015Y-60758D01*
X52903Y-60702D01*
X53578Y-60196D02*
X53578Y-60421D01*
X54028Y-60196D02*
X54028Y-60421D01*
X55771Y-61827D02*
X55715Y-61770D01*
X55603Y-61602D01*
X55546Y-61489D01*
X55490Y-61321D01*
X55434Y-61039D01*
X55434Y-60814D01*
X55490Y-60533D01*
X55546Y-60364D01*
X55603Y-60252D01*
X55715Y-60083D01*
X55771Y-60027D01*
X56727Y-60196D02*
X56502Y-60196D01*
X56390Y-60252D01*
X56334Y-60308D01*
X56221Y-60477D01*
X56165Y-60702D01*
X56165Y-61152D01*
X56221Y-61264D01*
X56277Y-61321D01*
X56390Y-61377D01*
X56615Y-61377D01*
X56727Y-61321D01*
X56784Y-61264D01*
X56840Y-61152D01*
X56840Y-60871D01*
X56784Y-60758D01*
X56727Y-60702D01*
X56615Y-60646D01*
X56390Y-60646D01*
X56277Y-60702D01*
X56221Y-60758D01*
X56165Y-60871D01*
X58246Y-61377D02*
X58246Y-60196D01*
X58752Y-61377D02*
X58752Y-60758D01*
X58696Y-60646D01*
X58583Y-60589D01*
X58415Y-60589D01*
X58302Y-60646D01*
X58246Y-60702D01*
X59483Y-61377D02*
X59371Y-61321D01*
X59315Y-61264D01*
X59258Y-61152D01*
X59258Y-60814D01*
X59315Y-60702D01*
X59371Y-60646D01*
X59483Y-60589D01*
X59652Y-60589D01*
X59765Y-60646D01*
X59821Y-60702D01*
X59877Y-60814D01*
X59877Y-61152D01*
X59821Y-61264D01*
X59765Y-61321D01*
X59652Y-61377D01*
X59483Y-61377D01*
X60552Y-61377D02*
X60439Y-61321D01*
X60383Y-61208D01*
X60383Y-60196D01*
X61452Y-61321D02*
X61339Y-61377D01*
X61114Y-61377D01*
X61002Y-61321D01*
X60946Y-61208D01*
X60946Y-60758D01*
X61002Y-60646D01*
X61114Y-60589D01*
X61339Y-60589D01*
X61452Y-60646D01*
X61508Y-60758D01*
X61508Y-60871D01*
X60946Y-60983D01*
X61958Y-61321D02*
X62070Y-61377D01*
X62295Y-61377D01*
X62408Y-61321D01*
X62464Y-61208D01*
X62464Y-61152D01*
X62408Y-61039D01*
X62295Y-60983D01*
X62127Y-60983D01*
X62014Y-60927D01*
X61958Y-60814D01*
X61958Y-60758D01*
X62014Y-60646D01*
X62127Y-60589D01*
X62295Y-60589D01*
X62408Y-60646D01*
X62858Y-61827D02*
X62914Y-61770D01*
X63027Y-61602D01*
X63083Y-61489D01*
X63139Y-61321D01*
X63195Y-61039D01*
X63195Y-60814D01*
X63139Y-60533D01*
X63083Y-60364D01*
X63027Y-60252D01*
X62914Y-60083D01*
X62858Y-60027D01*
M02*
